M48
; DRILL file {KiCad 9.0.2} date 2025-07-29T12:02:06-0700
; FORMAT={-:-/ absolute / metric / decimal}
; #@! TF.CreationDate,2025-07-29T12:02:06-07:00
; #@! TF.GenerationSoftware,Kicad,Pcbnew,9.0.2
; #@! TF.FileFunction,MixedPlating,1,2
FMAT,2
METRIC
; #@! TA.AperFunction,Plated,PTH,ViaDrill
T1C0.300
; #@! TA.AperFunction,Plated,PTH,ComponentDrill
T2C0.800
; #@! TA.AperFunction,Plated,PTH,ComponentDrill
T3C0.900
; #@! TA.AperFunction,Plated,PTH,ComponentDrill
T4C1.016
; #@! TA.AperFunction,Plated,PTH,ComponentDrill
T5C1.100
; #@! TA.AperFunction,Plated,PTH,ComponentDrill
T6C2.100
; #@! TA.AperFunction,Plated,PTH,ComponentDrill
T7C3.200
; #@! TA.AperFunction,NonPlated,NPTH,ComponentDrill
T8C0.650
; #@! TA.AperFunction,NonPlated,NPTH,ComponentDrill
T9C1.000
%
G90
G05
T1
X6.6Y34.0
X7.225Y25.975
X8.42Y72.155
X8.42Y67.51
X8.5Y22.5
X9.372Y70.885
X10.289Y69.261
X12.6Y17.2
X15.723Y62.29
X16.357Y49.431
X17.0Y18.5
X17.823Y49.765
X20.009Y93.722
X21.12Y64.83
X21.279Y12.601
X23.501Y63.56
X25.883Y62.29
X27.47Y13.871
X28.264Y51.495
X28.74Y32.127
X31.439Y68.481
X31.439Y52.765
X31.439Y51.019
X33.502Y33.556
X34.614Y78.483
X36.519Y23.555
X37.471Y55.94
X41.122Y68.64
X41.599Y52.447
X41.916Y27.524
X44.139Y26.73
X44.615Y64.83
X44.615Y63.401
X44.615Y62.29
X45.25Y77.689
X45.409Y54.829
X46.203Y66.1
X46.203Y23.872
X48.266Y76.578
X48.584Y24.666
X48.901Y75.942
X49.377Y75.307
X50.171Y74.831
X50.965Y54.352
X52.87Y61.02
X52.87Y59.75
X52.87Y57.21
X52.87Y55.94
X53.346Y31.492
X53.505Y48.161
X53.981Y73.403
X53.994Y39.893
X54.616Y28.952
X55.092Y32.127
X56.362Y13.554
X56.521Y48.479
X61.919Y51.812
X62.554Y48.637
X63.03Y12.442
X64.562Y78.641
X70.015Y43.24
X70.174Y79.435
X71.444Y42.605
X72.079Y62.29
X72.237Y54.511
X72.237Y28.952
X72.396Y32.127
X73.19Y63.242
X74.46Y51.336
X74.46Y49.749
X74.936Y54.352
X80.016Y57.845
X92.557Y50.542
X97.479Y61.337
X100.654Y28.635
X100.654Y27.206
X109.385Y48.479
X110.02Y33.715
X111.925Y30.223
X112.242Y46.732
X112.719Y68.322
X114.782Y23.396
X115.417Y58.797
X122.561Y28.317
X123.037Y32.604
X124.307Y24.984
X130.34Y67.211
X132.404Y60.226
T2
X42.71Y90.225
X42.71Y82.605
X45.25Y90.225
X45.25Y82.605
X47.79Y90.225
X47.79Y82.605
T3
X25.565Y23.0
X25.565Y20.841
X25.565Y18.682
X25.565Y16.523
X43.027Y21.2
X43.027Y18.66
T4
X10.96Y91.5
X10.96Y86.42
X10.96Y81.34
X11.214Y88.96
X11.214Y83.88
X13.5Y91.5
X13.5Y86.42
X13.5Y81.34
X13.754Y88.96
X13.754Y83.88
X22.314Y9.661
X22.314Y5.14
X28.816Y9.661
X28.816Y5.14
X39.776Y9.7
X39.776Y5.179
X46.279Y9.7
X46.279Y5.179
T5
X2.795Y44.945
X2.795Y29.705
X5.335Y44.945
X5.335Y29.705
X7.875Y44.945
X7.875Y29.705
X10.415Y44.945
X10.415Y29.705
X12.955Y44.945
X12.955Y29.705
X15.495Y44.945
X15.495Y29.705
X18.035Y44.945
X18.035Y29.705
X20.575Y44.945
X20.575Y29.705
X23.115Y44.945
X23.115Y29.705
X25.655Y44.945
X25.655Y29.705
X28.195Y44.945
X28.195Y29.705
X30.735Y44.945
X30.735Y29.705
X33.275Y44.945
X33.275Y29.705
X35.815Y44.945
X35.815Y29.705
X38.355Y44.945
X38.355Y29.705
X40.895Y44.945
X40.895Y29.705
X43.435Y44.945
X43.435Y29.705
X45.975Y44.945
X45.975Y29.705
X48.515Y44.945
X48.515Y29.705
X51.055Y44.945
X51.055Y29.705
X57.95Y7.2
X60.49Y101.58
X60.49Y93.08
X60.49Y90.08
X60.49Y83.42
X60.49Y74.92
X60.49Y71.92
X60.49Y64.83
X60.49Y56.33
X60.49Y53.33
X60.49Y45.7
X60.49Y37.2
X60.49Y34.2
X60.49Y25.38
X60.49Y16.88
X60.49Y13.88
X60.49Y7.2
X63.03Y7.2
X75.412Y7.2
X75.453Y89.58
X75.453Y71.6
X77.953Y89.58
X77.953Y71.6
X77.953Y64.83
X77.953Y56.33
X77.953Y53.33
X77.953Y45.7
X77.953Y37.2
X77.953Y34.2
X77.953Y25.46
X77.953Y16.96
X77.953Y13.96
X77.953Y7.2
X80.453Y89.58
X80.453Y71.6
X80.492Y7.2
X92.915Y89.58
X92.915Y71.8
X95.415Y89.58
X95.415Y71.8
X95.415Y64.83
X95.415Y56.33
X95.415Y53.33
X95.415Y45.62
X95.415Y37.12
X95.415Y34.12
X95.415Y25.38
X95.415Y16.88
X95.415Y13.88
X97.915Y89.58
X97.915Y71.8
X110.377Y89.58
X110.377Y71.7
X112.877Y89.58
X112.877Y71.7
X112.877Y64.83
X112.877Y56.33
X112.877Y53.33
X115.377Y89.58
X115.377Y71.7
X127.84Y89.561
X127.84Y71.7
X130.34Y89.561
X130.34Y71.7
X130.34Y64.91
X130.34Y56.41
X130.34Y53.41
X130.34Y45.7
X130.34Y37.2
X130.34Y34.2
X130.34Y25.46
X130.34Y16.96
X130.34Y13.96
X132.84Y89.561
X132.84Y71.7
T6
X73.453Y96.58
X73.453Y78.6
X82.453Y96.58
X82.453Y78.6
X90.915Y96.58
X90.915Y78.8
X99.915Y96.58
X99.915Y78.8
X108.377Y96.58
X108.377Y78.7
X117.377Y96.58
X117.377Y78.7
X125.84Y96.561
X125.84Y78.7
X134.84Y96.561
X134.84Y78.7
T8
X6.0Y72.8
X6.0Y67.02
T9
X4.744Y23.304
X4.744Y15.328
T7
X5.9Y108.0G85X9.1Y108.0
G05
X5.9Y3.0G85X9.1Y3.0
G05
X132.8Y108.0G85X136.0Y108.0
G05
X132.8Y3.0G85X136.0Y3.0
G05
M30
