M48
; DRILL file KiCad 10.0.1 date 2026-06-16T09:43:19
; FORMAT={-:-/ absolute / metric / decimal}
; #@! TF.CreationDate,2026-06-16T09:43:19-07:00
; #@! TF.GenerationSoftware,Kicad,Pcbnew,10.0.1
; #@! TF.FileFunction,MixedPlating,1,2
FMAT,2
METRIC
; #@! TA.AperFunction,Plated,PTH,ViaDrill
T1C0.300
; #@! TA.AperFunction,Plated,PTH,ComponentDrill
T2C0.800
; #@! TA.AperFunction,Plated,PTH,ComponentDrill
T3C0.900
; #@! TA.AperFunction,Plated,PTH,ComponentDrill
T4C1.016
; #@! TA.AperFunction,Plated,PTH,ComponentDrill
T5C1.100
; #@! TA.AperFunction,Plated,PTH,ComponentDrill
T6C2.100
; #@! TA.AperFunction,Plated,PTH,ComponentDrill
T7C3.200
; #@! TA.AperFunction,NonPlated,NPTH,ComponentDrill
T8C0.650
; #@! TA.AperFunction,NonPlated,NPTH,ComponentDrill
T9C1.000
%
G90
G05
T1
X6.6Y42.75
X6.676Y13.411
X7.225Y34.725
X8.42Y80.905
X8.42Y76.26
X8.5Y31.25
X9.372Y79.635
X10.289Y78.011
X12.6Y25.95
X15.723Y71.04
X16.357Y58.181
X17.0Y27.25
X17.823Y58.515
X20.009Y102.472
X21.12Y73.58
X21.279Y21.351
X23.501Y72.31
X23.7Y35.5
X25.883Y71.04
X27.9Y22.4
X28.264Y60.245
X28.74Y40.877
X31.4Y34.6
X31.439Y77.231
X31.439Y61.515
X31.439Y59.769
X33.502Y42.306
X34.2Y35.5
X34.5Y23.6
X34.614Y87.233
X36.2Y36.2
X37.471Y64.69
X38.8Y36.7
X41.122Y77.39
X41.599Y61.197
X41.916Y36.274
X44.139Y35.48
X44.615Y73.58
X44.615Y72.151
X44.615Y71.04
X45.25Y86.439
X45.409Y63.579
X45.975Y34.5
X46.203Y74.85
X48.4Y84.1
X48.515Y34.8
X49.0Y83.6
X49.6Y83.0
X50.3Y82.4
X50.965Y63.102
X51.4Y23.6
X52.87Y69.77
X52.87Y68.5
X52.87Y65.96
X52.87Y64.69
X52.9Y31.9
X53.346Y40.242
X53.505Y56.911
X53.822Y79.6
X53.994Y48.643
X54.616Y37.703
X56.521Y57.229
X60.357Y54.8
X61.5Y50.402
X61.919Y60.562
X62.0Y57.2
X66.1Y87.391
X67.348Y51.3
X67.5Y71.04
X68.2Y71.992
X69.262Y49.1
X70.174Y88.185
X70.4Y48.4
X72.8Y40.875
X72.8Y37.703
X73.825Y22.304
X80.0Y62.596
X80.492Y21.192
X89.7Y37.703
X89.859Y40.877
X92.557Y60.9
X97.479Y70.6
X102.5Y47.3
X103.3Y48.3
X104.0Y10.6
X104.7Y11.9
X106.0Y31.1
X107.0Y31.9
X114.5Y11.8
X114.5Y10.5
X115.3Y63.3
X116.7Y30.8
X120.6Y31.6
X124.9Y11.8
X127.5Y10.5
X132.404Y68.976
T2
X42.71Y98.975
X42.71Y91.355
X45.25Y98.975
X45.25Y91.355
X47.79Y98.975
X47.79Y91.355
T3
X43.027Y31.609
X43.027Y29.45
X43.027Y27.291
X43.027Y25.132
X60.49Y29.644
X60.49Y27.104
T4
X10.96Y100.25
X10.96Y95.17
X10.96Y90.09
X11.214Y97.71
X11.214Y92.63
X13.5Y100.25
X13.5Y95.17
X13.5Y90.09
X13.754Y97.71
X13.754Y92.63
X39.776Y13.411
X39.776Y8.89
X46.279Y13.411
X46.279Y8.89
X57.239Y13.45
X57.239Y8.929
X63.741Y13.45
X63.741Y8.929
T5
X2.795Y53.695
X2.795Y38.455
X5.335Y53.695
X5.335Y38.455
X7.875Y53.695
X7.875Y38.455
X10.415Y53.695
X10.415Y38.455
X12.955Y53.695
X12.955Y38.455
X15.495Y53.695
X15.495Y38.455
X18.035Y53.695
X18.035Y38.455
X20.575Y53.695
X20.575Y38.455
X23.115Y53.695
X23.115Y38.455
X25.655Y53.695
X25.655Y38.455
X28.195Y53.695
X28.195Y38.455
X30.735Y53.695
X30.735Y38.455
X33.275Y53.695
X33.275Y38.455
X35.815Y53.695
X35.815Y38.455
X38.355Y53.695
X38.355Y38.455
X40.895Y53.695
X40.895Y38.455
X43.435Y53.695
X43.435Y38.455
X45.975Y53.695
X45.975Y38.455
X48.515Y53.695
X48.515Y38.455
X51.055Y53.695
X51.055Y38.455
X60.49Y118.569
X60.49Y110.069
X60.49Y107.069
X60.49Y97.457
X60.49Y88.957
X60.49Y85.957
X60.49Y76.225
X60.49Y67.725
X60.49Y64.725
X75.412Y10.95
X75.453Y107.5
X75.453Y86.388
X77.953Y107.5
X77.953Y86.388
X77.953Y76.225
X77.953Y67.725
X77.953Y64.725
X77.953Y55.112
X77.953Y46.612
X77.953Y43.612
X77.953Y34.0
X77.953Y25.5
X77.953Y22.5
X77.953Y10.95
X80.453Y107.5
X80.453Y86.388
X80.492Y10.95
X92.875Y10.95
X92.915Y107.5
X92.915Y86.388
X95.415Y107.5
X95.415Y86.388
X95.415Y76.225
X95.415Y67.725
X95.415Y64.725
X95.415Y55.112
X95.415Y46.612
X95.415Y43.612
X95.415Y34.0
X95.415Y25.5
X95.415Y22.5
X95.415Y10.95
X97.915Y107.5
X97.915Y86.388
X97.955Y10.95
X110.377Y107.5
X110.377Y86.388
X112.877Y107.5
X112.877Y86.388
X112.877Y76.225
X112.877Y67.725
X112.877Y64.725
X112.877Y55.112
X112.877Y46.612
X112.877Y43.612
X112.877Y34.0
X112.877Y25.5
X112.877Y22.5
X115.377Y107.5
X115.377Y86.388
X127.84Y107.5
X127.84Y86.388
X130.34Y107.5
X130.34Y86.388
X130.34Y76.225
X130.34Y67.725
X130.34Y64.725
X130.34Y55.112
X130.34Y46.612
X130.34Y43.612
X130.34Y34.0
X130.34Y25.5
X130.34Y22.5
X132.84Y107.5
X132.84Y86.388
T6
X73.453Y114.5
X73.453Y93.388
X82.453Y114.5
X82.453Y93.388
X90.915Y114.5
X90.915Y93.388
X99.915Y114.5
X99.915Y93.388
X108.377Y114.5
X108.377Y93.388
X117.377Y114.5
X117.377Y93.388
X125.84Y114.5
X125.84Y93.388
X134.84Y114.5
X134.84Y93.388
T8
X6.0Y81.55
X6.0Y75.77
T9
X4.744Y32.054
X4.744Y24.078
T7
X5.9Y125.5G85X9.1Y125.5
G05
X5.9Y3.0G85X9.1Y3.0
G05
X132.8Y125.5G85X136.0Y125.5
G05
X132.8Y3.0G85X136.0Y3.0
G05
M30
