%TF.GenerationSoftware,KiCad,Pcbnew,9.0.2*%
%TF.CreationDate,2025-12-10T09:58:39-08:00*%
%TF.ProjectId,Seed3-DevKit-Eurorack-Rev2,53656564-332d-4446-9576-4b69742d4575,rev?*%
%TF.SameCoordinates,Original*%
%TF.FileFunction,Soldermask,Top*%
%TF.FilePolarity,Negative*%
%FSLAX45Y45*%
G04 Gerber Fmt 4.5, Leading zero omitted, Abs format (unit mm)*
G04 Created by KiCad (PCBNEW 9.0.2) date 2025-12-10 09:58:39*
%MOMM*%
%LPD*%
G01*
G04 APERTURE LIST*
G04 Aperture macros list*
%AMRoundRect*
0 Rectangle with rounded corners*
0 $1 Rounding radius*
0 $2 $3 $4 $5 $6 $7 $8 $9 X,Y pos of 4 corners*
0 Add a 4 corners polygon primitive as box body*
4,1,4,$2,$3,$4,$5,$6,$7,$8,$9,$2,$3,0*
0 Add four circle primitives for the rounded corners*
1,1,$1+$1,$2,$3*
1,1,$1+$1,$4,$5*
1,1,$1+$1,$6,$7*
1,1,$1+$1,$8,$9*
0 Add four rect primitives between the rounded corners*
20,1,$1+$1,$2,$3,$4,$5,0*
20,1,$1+$1,$4,$5,$6,$7,0*
20,1,$1+$1,$6,$7,$8,$9,0*
20,1,$1+$1,$8,$9,$2,$3,0*%
%AMFreePoly0*
4,1,25,0.401445,0.907196,0.413568,0.896842,0.896842,0.413568,0.925349,0.357620,0.926600,0.341726,0.926600,-0.341726,0.907196,-0.401445,0.896842,-0.413568,0.413568,-0.896842,0.357620,-0.925349,0.341726,-0.926600,-0.341726,-0.926600,-0.401445,-0.907196,-0.413568,-0.896842,-0.896842,-0.413568,-0.925349,-0.357620,-0.926600,-0.341726,-0.926600,0.341726,-0.907196,0.401445,-0.896842,0.413568,
-0.413568,0.896842,-0.357620,0.925349,-0.341726,0.926600,0.341726,0.926600,0.401445,0.907196,0.401445,0.907196,$1*%
%AMFreePoly1*
4,1,25,0.448997,1.021996,0.461120,1.011642,1.011642,0.461120,1.040149,0.405172,1.041400,0.389278,1.041400,-0.389278,1.021996,-0.448997,1.011642,-0.461120,0.461120,-1.011642,0.405172,-1.040149,0.389278,-1.041400,-0.389278,-1.041400,-0.448997,-1.021996,-0.461120,-1.011642,-1.011642,-0.461120,-1.040149,-0.405172,-1.041400,-0.389278,-1.041400,0.389278,-1.021996,0.448997,-1.011642,0.461120,
-0.461120,1.011642,-0.405172,1.040149,-0.389278,1.041400,0.389278,1.041400,0.448997,1.021996,0.448997,1.021996,$1*%
G04 Aperture macros list end*
%ADD10C,2.000000*%
%ADD11RoundRect,0.200000X-0.275000X0.200000X-0.275000X-0.200000X0.275000X-0.200000X0.275000X0.200000X0*%
%ADD12RoundRect,0.225000X0.225000X0.250000X-0.225000X0.250000X-0.225000X-0.250000X0.225000X-0.250000X0*%
%ADD13RoundRect,0.225000X-0.250000X0.225000X-0.250000X-0.225000X0.250000X-0.225000X0.250000X0.225000X0*%
%ADD14RoundRect,0.200000X0.275000X-0.200000X0.275000X0.200000X-0.275000X0.200000X-0.275000X-0.200000X0*%
%ADD15RoundRect,0.200000X0.200000X0.275000X-0.200000X0.275000X-0.200000X-0.275000X0.200000X-0.275000X0*%
%ADD16RoundRect,0.200000X-0.200000X-0.275000X0.200000X-0.275000X0.200000X0.275000X-0.200000X0.275000X0*%
%ADD17O,7.000000X3.800000*%
%ADD18RoundRect,0.101600X-0.825000X0.825000X-0.825000X-0.825000X0.825000X-0.825000X0.825000X0.825000X0*%
%ADD19FreePoly0,270.000000*%
%ADD20RoundRect,0.101600X-1.558000X1.558000X-1.558000X-1.558000X1.558000X-1.558000X1.558000X1.558000X0*%
%ADD21RoundRect,0.225000X-0.225000X-0.250000X0.225000X-0.250000X0.225000X0.250000X-0.225000X0.250000X0*%
%ADD22C,1.853200*%
%ADD23RoundRect,0.150000X0.587500X0.150000X-0.587500X0.150000X-0.587500X-0.150000X0.587500X-0.150000X0*%
%ADD24RoundRect,0.150000X0.825000X0.150000X-0.825000X0.150000X-0.825000X-0.150000X0.825000X-0.150000X0*%
%ADD25RoundRect,0.112500X-0.112500X0.187500X-0.112500X-0.187500X0.112500X-0.187500X0.112500X0.187500X0*%
%ADD26RoundRect,0.250000X-0.625000X0.312500X-0.625000X-0.312500X0.625000X-0.312500X0.625000X0.312500X0*%
%ADD27O,1.625600X3.048000*%
%ADD28C,2.082800*%
%ADD29RoundRect,0.250000X1.500000X0.550000X-1.500000X0.550000X-1.500000X-0.550000X1.500000X-0.550000X0*%
%ADD30R,1.800000X1.800000*%
%ADD31C,1.800000*%
%ADD32R,1.700000X1.700000*%
%ADD33C,1.700000*%
%ADD34RoundRect,0.225000X0.250000X-0.225000X0.250000X0.225000X-0.250000X0.225000X-0.250000X-0.225000X0*%
%ADD35RoundRect,0.150000X0.150000X-0.725000X0.150000X0.725000X-0.150000X0.725000X-0.150000X-0.725000X0*%
%ADD36RoundRect,0.250000X-0.475000X0.250000X-0.475000X-0.250000X0.475000X-0.250000X0.475000X0.250000X0*%
%ADD37C,0.650000*%
%ADD38RoundRect,0.102000X-0.575000X0.300000X-0.575000X-0.300000X0.575000X-0.300000X0.575000X0.300000X0*%
%ADD39RoundRect,0.102000X-0.575000X0.150000X-0.575000X-0.150000X0.575000X-0.150000X0.575000X0.150000X0*%
%ADD40RoundRect,0.102000X-1.000000X1.090000X-1.000000X-1.090000X1.000000X-1.090000X1.000000X1.090000X0*%
%ADD41RoundRect,0.150000X-0.512500X-0.150000X0.512500X-0.150000X0.512500X0.150000X-0.512500X0.150000X0*%
%ADD42RoundRect,0.250000X-0.550000X0.550000X-0.550000X-0.550000X0.550000X-0.550000X0.550000X0.550000X0*%
%ADD43C,1.600000*%
%ADD44C,0.999997*%
%ADD45RoundRect,0.102000X-0.650000X0.350000X-0.650000X-0.350000X0.650000X-0.350000X0.650000X0.350000X0*%
%ADD46RoundRect,0.102000X-0.825500X0.723900X-0.825500X-0.723900X0.825500X-0.723900X0.825500X0.723900X0*%
%ADD47RoundRect,0.102000X-1.219200X0.723900X-1.219200X-0.723900X1.219200X-0.723900X1.219200X0.723900X0*%
%ADD48RoundRect,0.102000X-0.825500X0.927100X-0.825500X-0.927100X0.825500X-0.927100X0.825500X0.927100X0*%
%ADD49FreePoly1,90.000000*%
%ADD50RoundRect,0.250000X-0.550000X1.500000X-0.550000X-1.500000X0.550000X-1.500000X0.550000X1.500000X0*%
%ADD51RoundRect,0.150000X0.150000X-0.825000X0.150000X0.825000X-0.150000X0.825000X-0.150000X-0.825000X0*%
G04 APERTURE END LIST*
D10*
%TO.C,FD3*%
X12780000Y514000D03*
%TD*%
D11*
%TO.C,R24*%
X9890750Y4011500D03*
X9890750Y3846500D03*
%TD*%
%TO.C,FB2*%
X1794500Y9948750D03*
X1794500Y9783750D03*
%TD*%
D12*
%TO.C,C47*%
X5757500Y10700000D03*
X5602500Y10700000D03*
%TD*%
D13*
%TO.C,C6*%
X4652000Y6308375D03*
X4652000Y6153375D03*
%TD*%
D14*
%TO.C,R50*%
X775000Y4110000D03*
X775000Y4275000D03*
%TD*%
D15*
%TO.C,R45*%
X3445500Y7891250D03*
X3280500Y7891250D03*
%TD*%
D16*
%TO.C,R2*%
X1167510Y7555000D03*
X1332510Y7555000D03*
%TD*%
%TO.C,R31*%
X9109750Y4087750D03*
X9274750Y4087750D03*
%TD*%
D17*
%TO.C,H1*%
X750000Y12550000D03*
%TD*%
D15*
%TO.C,R67*%
X12175500Y452750D03*
X12010500Y452750D03*
%TD*%
D16*
%TO.C,R49*%
X6207187Y4471188D03*
X6372187Y4471188D03*
%TD*%
D18*
%TO.C,VR7*%
X11037750Y8638755D03*
D19*
X11287750Y8638755D03*
X11537750Y8638755D03*
D20*
X10837750Y9338755D03*
X11737750Y9338755D03*
%TD*%
D13*
%TO.C,C33*%
X2175500Y9100500D03*
X2175500Y8945500D03*
%TD*%
D21*
%TO.C,C14*%
X3241000Y6303750D03*
X3396000Y6303750D03*
%TD*%
D16*
%TO.C,R73*%
X12010500Y770250D03*
X12175500Y770250D03*
%TD*%
D22*
%TO.C,J_AUDIO_IN_R1*%
X11287750Y2250000D03*
X11287750Y2550000D03*
X11287750Y3400000D03*
%TD*%
D14*
%TO.C,R51*%
X525000Y4110000D03*
X525000Y4275000D03*
%TD*%
D23*
%TO.C,Q2*%
X9540000Y3834000D03*
X9540000Y4024000D03*
X9352500Y3929000D03*
%TD*%
D16*
%TO.C,R57*%
X6334187Y5423688D03*
X6499187Y5423688D03*
%TD*%
D21*
%TO.C,C4*%
X10872500Y1869125D03*
X11027500Y1869125D03*
%TD*%
D24*
%TO.C,U12*%
X5128250Y6469000D03*
X5128250Y6596000D03*
X5128250Y6723000D03*
X5128250Y6850000D03*
X5128250Y6977000D03*
X5128250Y7104000D03*
X5128250Y7231000D03*
X5128250Y7358000D03*
X4633250Y7358000D03*
X4633250Y7231000D03*
X4633250Y7104000D03*
X4633250Y6977000D03*
X4633250Y6850000D03*
X4633250Y6723000D03*
X4633250Y6596000D03*
X4633250Y6469000D03*
%TD*%
D18*
%TO.C,VR3*%
X11037750Y10750000D03*
D19*
X11287750Y10750000D03*
X11537750Y10750000D03*
D20*
X10837750Y11450000D03*
X11737750Y11450000D03*
%TD*%
D15*
%TO.C,R10*%
X5814000Y8110000D03*
X5649000Y8110000D03*
%TD*%
D11*
%TO.C,R80*%
X11997750Y1882500D03*
X11997750Y1717500D03*
%TD*%
%TO.C,R44*%
X3705000Y3572500D03*
X3705000Y3407500D03*
%TD*%
D25*
%TO.C,D2*%
X1985000Y9136000D03*
X1985000Y8926000D03*
%TD*%
D18*
%TO.C,VR5*%
X7545250Y8638755D03*
D19*
X7795250Y8638755D03*
X8045250Y8638755D03*
D20*
X7345250Y9338755D03*
X8245250Y9338755D03*
%TD*%
D26*
%TO.C,R9*%
X1357500Y6297750D03*
X1357500Y6005250D03*
%TD*%
D27*
%TO.C,SW4*%
X9287500Y1095000D03*
X9541500Y1095000D03*
X9795500Y1095000D03*
%TD*%
D15*
%TO.C,R38*%
X4036000Y6462500D03*
X3871000Y6462500D03*
%TD*%
D14*
%TO.C,R52*%
X1550000Y4110000D03*
X1550000Y4275000D03*
%TD*%
D10*
%TO.C,FD1*%
X1477000Y514000D03*
%TD*%
D28*
%TO.C,SW1*%
X3977630Y1341120D03*
X4627870Y1341120D03*
X3977630Y889000D03*
X4627870Y889000D03*
%TD*%
D18*
%TO.C,VR1*%
X7545250Y10750000D03*
D19*
X7795250Y10750000D03*
X8045250Y10750000D03*
D20*
X7345250Y11450000D03*
X8245250Y11450000D03*
%TD*%
D29*
%TO.C,C49*%
X969000Y6024500D03*
X429000Y6024500D03*
%TD*%
D11*
%TO.C,R17*%
X8177750Y4011250D03*
X8177750Y3846250D03*
%TD*%
D22*
%TO.C,J_MIDI_THRU1*%
X6049000Y8595660D03*
X6049000Y8895660D03*
X6049000Y9745660D03*
%TD*%
%TO.C,J_CV_OUT_1*%
X7795250Y4361245D03*
X7795250Y4661245D03*
X7795250Y5511245D03*
%TD*%
D11*
%TO.C,R43*%
X5510000Y3192500D03*
X5510000Y3027500D03*
%TD*%
D16*
%TO.C,R23*%
X7396750Y4087500D03*
X7561750Y4087500D03*
%TD*%
%TO.C,R47*%
X3280500Y7415000D03*
X3445500Y7415000D03*
%TD*%
D11*
%TO.C,R60*%
X6162687Y5601437D03*
X6162687Y5436438D03*
%TD*%
D22*
%TO.C,J_MIDI_OUT1*%
X6049000Y6472490D03*
X6049000Y6772490D03*
X6049000Y7622490D03*
%TD*%
D16*
%TO.C,R65*%
X10756375Y789625D03*
X10921375Y789625D03*
%TD*%
D30*
%TO.C,LED2*%
X6049000Y2964425D03*
D31*
X6049000Y2710425D03*
%TD*%
D15*
%TO.C,R32*%
X3561250Y8596500D03*
X3396250Y8596500D03*
%TD*%
D11*
%TO.C,R66*%
X10600750Y792750D03*
X10600750Y627750D03*
%TD*%
D32*
%TO.C,A1*%
X279500Y3845500D03*
D33*
X533500Y3845500D03*
X787500Y3845500D03*
X1041500Y3845500D03*
X1295500Y3845500D03*
X1549500Y3845500D03*
X1803500Y3845500D03*
X2057500Y3845500D03*
X2311500Y3845500D03*
X2565500Y3845500D03*
X2819500Y3845500D03*
X3073500Y3845500D03*
X3327500Y3845500D03*
X3581500Y3845500D03*
X3835500Y3845500D03*
X4089500Y3845500D03*
X4343500Y3845500D03*
X4597500Y3845500D03*
X4851500Y3845500D03*
X5105500Y3845500D03*
X5105500Y5369500D03*
X4851500Y5369500D03*
X4597500Y5369500D03*
X4343500Y5369500D03*
X4089500Y5369500D03*
X3835500Y5369500D03*
X3581500Y5369500D03*
X3327500Y5369500D03*
X3073500Y5369500D03*
X2819500Y5369500D03*
X2565500Y5369500D03*
X2311500Y5369500D03*
X2057500Y5369500D03*
X1803500Y5369500D03*
X1549500Y5369500D03*
X1295500Y5369500D03*
X1041500Y5369500D03*
X787500Y5369500D03*
X533500Y5369500D03*
X279500Y5369500D03*
%TD*%
D14*
%TO.C,R54*%
X1050000Y4110000D03*
X1050000Y4275000D03*
%TD*%
D21*
%TO.C,C1*%
X4574500Y8913750D03*
X4729500Y8913750D03*
%TD*%
D22*
%TO.C,J_CV_OUT_2*%
X9541500Y4361245D03*
X9541500Y4661245D03*
X9541500Y5511245D03*
%TD*%
D26*
%TO.C,R5*%
X1357500Y7059750D03*
X1357500Y6767250D03*
%TD*%
D16*
%TO.C,R1*%
X1167510Y8105000D03*
X1332510Y8105000D03*
%TD*%
D11*
%TO.C,R79*%
X11870750Y1106750D03*
X11870750Y941750D03*
%TD*%
D18*
%TO.C,VR4*%
X12784000Y10750000D03*
D19*
X13034000Y10750000D03*
X13284000Y10750000D03*
D20*
X12584000Y11450000D03*
X13484000Y11450000D03*
%TD*%
D15*
%TO.C,R64*%
X10921375Y472125D03*
X10756375Y472125D03*
%TD*%
D16*
%TO.C,R36*%
X3871000Y5986250D03*
X4036000Y5986250D03*
%TD*%
D11*
%TO.C,R29*%
X5350000Y9312500D03*
X5350000Y9147500D03*
%TD*%
D22*
%TO.C,J_AUDIO_IN_L1*%
X11287750Y4361245D03*
X11287750Y4661245D03*
X11287750Y5511245D03*
%TD*%
%TO.C,J_GATE_IN_1*%
X7795250Y2250000D03*
X7795250Y2550000D03*
X7795250Y3400000D03*
%TD*%
D13*
%TO.C,C19*%
X3636000Y6476500D03*
X3636000Y6321500D03*
%TD*%
D34*
%TO.C,C3*%
X12632750Y1010250D03*
X12632750Y1165250D03*
%TD*%
D35*
%TO.C,U13*%
X6226187Y4689938D03*
X6353187Y4689938D03*
X6480187Y4689938D03*
X6607187Y4689938D03*
X6607187Y5204938D03*
X6480187Y5204938D03*
X6353187Y5204938D03*
X6226187Y5204938D03*
%TD*%
D16*
%TO.C,R3*%
X4236125Y8913750D03*
X4401125Y8913750D03*
%TD*%
%TO.C,R37*%
X3871000Y6145000D03*
X4036000Y6145000D03*
%TD*%
D22*
%TO.C,J_CV_IN_1*%
X7795250Y6472490D03*
X7795250Y6772490D03*
X7795250Y7622490D03*
%TD*%
D14*
%TO.C,R53*%
X1300000Y4110000D03*
X1300000Y4275000D03*
%TD*%
D16*
%TO.C,R34*%
X3236000Y6462500D03*
X3401000Y6462500D03*
%TD*%
D15*
%TO.C,R56*%
X6499187Y5582438D03*
X6334187Y5582438D03*
%TD*%
D16*
%TO.C,R41*%
X3820250Y7732500D03*
X3985250Y7732500D03*
%TD*%
%TO.C,R78*%
X12169250Y1722750D03*
X12334250Y1722750D03*
%TD*%
D28*
%TO.C,SW2*%
X5723880Y1345000D03*
X6374120Y1345000D03*
X5723880Y892880D03*
X6374120Y892880D03*
%TD*%
D15*
%TO.C,R33*%
X3401000Y6145000D03*
X3236000Y6145000D03*
%TD*%
D16*
%TO.C,R39*%
X3820250Y7891250D03*
X3985250Y7891250D03*
%TD*%
D36*
%TO.C,C51*%
X2366000Y9136000D03*
X2366000Y8946000D03*
%TD*%
D11*
%TO.C,R28*%
X9732000Y4011500D03*
X9732000Y3846500D03*
%TD*%
D37*
%TO.C,J7*%
X600000Y8155000D03*
X600000Y7577000D03*
D38*
X707500Y8186000D03*
X707500Y8106000D03*
D39*
X707500Y7991000D03*
X707500Y7891000D03*
X707500Y7841000D03*
X707500Y7741000D03*
D38*
X707500Y7546000D03*
X707500Y7626000D03*
D39*
X707500Y7691000D03*
X707500Y7791000D03*
X707500Y7941000D03*
X707500Y8041000D03*
D40*
X650000Y8377000D03*
X650000Y7355000D03*
X257000Y8377000D03*
X257000Y7355000D03*
%TD*%
D17*
%TO.C,H2*%
X750000Y300000D03*
%TD*%
D41*
%TO.C,U14*%
X1281260Y7925000D03*
X1281260Y7830000D03*
X1281260Y7735000D03*
X1508760Y7735000D03*
X1508760Y7830000D03*
X1508760Y7925000D03*
%TD*%
D18*
%TO.C,VR6*%
X9291500Y8638755D03*
D19*
X9541500Y8638755D03*
X9791500Y8638755D03*
D20*
X9091500Y9338755D03*
X9991500Y9338755D03*
%TD*%
D22*
%TO.C,J_MIDI_IN1*%
X6049000Y10706905D03*
X6049000Y11006905D03*
X6049000Y11856905D03*
%TD*%
D14*
%TO.C,R6*%
X5159500Y9147500D03*
X5159500Y9312500D03*
%TD*%
D22*
%TO.C,J_CV_IN_2*%
X9541500Y6472490D03*
X9541500Y6772490D03*
X9541500Y7622490D03*
%TD*%
D21*
%TO.C,C22*%
X12174250Y1881500D03*
X12329250Y1881500D03*
%TD*%
D35*
%TO.C,U15*%
X12061250Y989000D03*
X12188250Y989000D03*
X12315250Y989000D03*
X12442250Y989000D03*
X12442250Y1504000D03*
X12315250Y1504000D03*
X12188250Y1504000D03*
X12061250Y1504000D03*
%TD*%
D15*
%TO.C,R19*%
X7561750Y3770000D03*
X7396750Y3770000D03*
%TD*%
D23*
%TO.C,U3*%
X3382000Y8215750D03*
X3382000Y8405750D03*
X3194500Y8310750D03*
%TD*%
D12*
%TO.C,C16*%
X3980250Y7573750D03*
X3825250Y7573750D03*
%TD*%
D35*
%TO.C,U1*%
X10759500Y992500D03*
X10886500Y992500D03*
X11013500Y992500D03*
X11140500Y992500D03*
X11140500Y1507500D03*
X11013500Y1507500D03*
X10886500Y1507500D03*
X10759500Y1507500D03*
%TD*%
D34*
%TO.C,C5*%
X11331000Y1045500D03*
X11331000Y1200500D03*
%TD*%
D23*
%TO.C,Q1*%
X7827000Y3833750D03*
X7827000Y4023750D03*
X7639500Y3928750D03*
%TD*%
D15*
%TO.C,R30*%
X9274750Y3770250D03*
X9109750Y3770250D03*
%TD*%
D13*
%TO.C,C2*%
X2175500Y9929750D03*
X2175500Y9774750D03*
%TD*%
D27*
%TO.C,SW3*%
X7541250Y1095000D03*
X7795250Y1095000D03*
X8049250Y1095000D03*
%TD*%
D16*
%TO.C,R59*%
X5649000Y7951250D03*
X5814000Y7951250D03*
%TD*%
D11*
%TO.C,R55*%
X6035687Y4712438D03*
X6035687Y4547438D03*
%TD*%
D30*
%TO.C,LED1*%
X4302750Y3160925D03*
D31*
X4302750Y2945025D03*
X4302750Y2729125D03*
X4302750Y2513225D03*
%TD*%
D21*
%TO.C,C21*%
X12015500Y611500D03*
X12170500Y611500D03*
%TD*%
D15*
%TO.C,R48*%
X6372187Y4312438D03*
X6207187Y4312438D03*
%TD*%
D12*
%TO.C,C15*%
X4031000Y6303750D03*
X3876000Y6303750D03*
%TD*%
D17*
%TO.C,H3*%
X13440000Y12550000D03*
%TD*%
D13*
%TO.C,C13*%
X3574000Y8388250D03*
X3574000Y8233250D03*
%TD*%
D22*
%TO.C,J_CV_IN_3*%
X11287750Y6472490D03*
X11287750Y6772490D03*
X11287750Y7622490D03*
%TD*%
D18*
%TO.C,VR8*%
X12784000Y8638755D03*
D19*
X13034000Y8638755D03*
X13284000Y8638755D03*
D20*
X12584000Y9338755D03*
X13484000Y9338755D03*
%TD*%
D21*
%TO.C,C18*%
X3285500Y7573750D03*
X3440500Y7573750D03*
%TD*%
D11*
%TO.C,R40*%
X3880000Y3572500D03*
X3880000Y3407500D03*
%TD*%
D25*
%TO.C,D1*%
X1985000Y9961500D03*
X1985000Y9751500D03*
%TD*%
D42*
%TO.C,U11*%
X4779000Y9897500D03*
D43*
X4525000Y9897500D03*
X4271000Y9897500D03*
X4271000Y9135500D03*
X4525000Y9135500D03*
X4779000Y9135500D03*
%TD*%
D44*
%TO.C,U7*%
X474440Y3205380D03*
X474440Y2407820D03*
D45*
X1544880Y2482020D03*
X1544880Y2592020D03*
X1544880Y2702020D03*
X1544880Y2812020D03*
X1544880Y2922020D03*
X1544880Y3032020D03*
X1544880Y3142020D03*
X1544880Y3252020D03*
X1544880Y3362020D03*
D46*
X1467500Y3503860D03*
D47*
X497500Y3503860D03*
X497500Y1921380D03*
D48*
X1467500Y1998880D03*
%TD*%
D13*
%TO.C,C20*%
X6797687Y4866188D03*
X6797687Y4711188D03*
%TD*%
D21*
%TO.C,C17*%
X10761375Y630875D03*
X10916375Y630875D03*
%TD*%
D11*
%TO.C,R63*%
X10711875Y1872250D03*
X10711875Y1707250D03*
%TD*%
D15*
%TO.C,R42*%
X3985250Y7415000D03*
X3820250Y7415000D03*
%TD*%
%TO.C,R35*%
X3401000Y5986250D03*
X3236000Y5986250D03*
%TD*%
D11*
%TO.C,R25*%
X3530000Y3572500D03*
X3530000Y3407500D03*
%TD*%
D49*
%TO.C,P1*%
X1121400Y9263000D03*
X1375400Y9263000D03*
X1096000Y9517000D03*
X1350000Y9517000D03*
X1121400Y9771000D03*
X1375400Y9771000D03*
X1096000Y9009000D03*
X1350000Y9009000D03*
X1096000Y10025000D03*
X1350000Y10025000D03*
%TD*%
D15*
%TO.C,R61*%
X11032500Y2027875D03*
X10867500Y2027875D03*
%TD*%
D36*
%TO.C,C50*%
X2366000Y9929750D03*
X2366000Y9739750D03*
%TD*%
D22*
%TO.C,J_GATE_IN_2*%
X9541500Y2250000D03*
X9541500Y2550000D03*
X9541500Y3400000D03*
%TD*%
D10*
%TO.C,FD2*%
X200110Y11749640D03*
%TD*%
D50*
%TO.C,C44*%
X2905750Y9136000D03*
X2905750Y8596000D03*
%TD*%
D22*
%TO.C,J_CV_IN_4*%
X13034000Y6472490D03*
X13034000Y6772490D03*
X13034000Y7622490D03*
%TD*%
D11*
%TO.C,R18*%
X8019000Y4011250D03*
X8019000Y3846250D03*
%TD*%
%TO.C,R4*%
X5064750Y10044000D03*
X5064750Y9879000D03*
%TD*%
D22*
%TO.C,J_AUDIO_OUT_L1*%
X13034000Y4361245D03*
X13034000Y4661245D03*
X13034000Y5511245D03*
%TD*%
D18*
%TO.C,VR2*%
X9291500Y10750000D03*
D19*
X9541500Y10750000D03*
X9791500Y10750000D03*
D20*
X9091500Y11450000D03*
X9991500Y11450000D03*
%TD*%
D17*
%TO.C,H4*%
X13440000Y300000D03*
%TD*%
D16*
%TO.C,R62*%
X10867500Y1710375D03*
X11032500Y1710375D03*
%TD*%
D22*
%TO.C,J_AUDIO_OUT_R1*%
X13034000Y2250000D03*
X13034000Y2550000D03*
X13034000Y3400000D03*
%TD*%
D51*
%TO.C,U2*%
X3255000Y6691250D03*
X3382000Y6691250D03*
X3509000Y6691250D03*
X3636000Y6691250D03*
X3763000Y6691250D03*
X3890000Y6691250D03*
X4017000Y6691250D03*
X4017000Y7186250D03*
X3890000Y7186250D03*
X3763000Y7186250D03*
X3636000Y7186250D03*
X3509000Y7186250D03*
X3382000Y7186250D03*
X3255000Y7186250D03*
%TD*%
D29*
%TO.C,C46*%
X969000Y6765250D03*
X429000Y6765250D03*
%TD*%
D15*
%TO.C,R68*%
X12334250Y2040250D03*
X12169250Y2040250D03*
%TD*%
D14*
%TO.C,FB3*%
X1794500Y8939250D03*
X1794500Y9104250D03*
%TD*%
D50*
%TO.C,C39*%
X2905750Y10152000D03*
X2905750Y9612000D03*
%TD*%
D15*
%TO.C,R46*%
X3445500Y7732500D03*
X3280500Y7732500D03*
%TD*%
M02*
