%TF.GenerationSoftware,KiCad,Pcbnew,10.0.1*%
%TF.CreationDate,2026-06-18T10:04:09-07:00*%
%TF.ProjectId,Seed3-DevKit-Eurorack-Rev3,53656564-332d-4446-9576-4b69742d4575,rev?*%
%TF.SameCoordinates,Original*%
%TF.FileFunction,Legend,Bot*%
%TF.FilePolarity,Positive*%
%FSLAX45Y45*%
G04 Gerber Fmt 4.5, Leading zero omitted, Abs format (unit mm)*
G04 Created by KiCad (PCBNEW 10.0.1) date 2026-06-18 10:04:09*
%MOMM*%
%LPD*%
G01*
G04 APERTURE LIST*
G04 Aperture macros list*
%AMRoundRect*
0 Rectangle with rounded corners*
0 $1 Rounding radius*
0 $2 $3 $4 $5 $6 $7 $8 $9 X,Y pos of 4 corners*
0 Add a 4 corners polygon primitive as box body*
4,1,4,$2,$3,$4,$5,$6,$7,$8,$9,$2,$3,0*
0 Add four circle primitives for the rounded corners*
1,1,$1+$1,$2,$3*
1,1,$1+$1,$4,$5*
1,1,$1+$1,$6,$7*
1,1,$1+$1,$8,$9*
0 Add four rect primitives between the rounded corners*
20,1,$1+$1,$2,$3,$4,$5,0*
20,1,$1+$1,$4,$5,$6,$7,0*
20,1,$1+$1,$6,$7,$8,$9,0*
20,1,$1+$1,$8,$9,$2,$3,0*%
%AMFreePoly0*
4,1,25,0.401445,0.907196,0.413568,0.896842,0.896842,0.413568,0.925349,0.357620,0.926600,0.341726,0.926600,-0.341726,0.907196,-0.401445,0.896842,-0.413568,0.413568,-0.896842,0.357620,-0.925349,0.341726,-0.926600,-0.341726,-0.926600,-0.401445,-0.907196,-0.413568,-0.896842,-0.896842,-0.413568,-0.925349,-0.357620,-0.926600,-0.341726,-0.926600,0.341726,-0.907196,0.401445,-0.896842,0.413568,
-0.413568,0.896842,-0.357620,0.925349,-0.341726,0.926600,0.341726,0.926600,0.401445,0.907196,0.401445,0.907196,$1*%
%AMFreePoly1*
4,1,25,0.448997,1.021996,0.461120,1.011642,1.011642,0.461120,1.040149,0.405172,1.041400,0.389278,1.041400,-0.389278,1.021996,-0.448997,1.011642,-0.461120,0.461120,-1.011642,0.405172,-1.040149,0.389278,-1.041400,-0.389278,-1.041400,-0.448997,-1.021996,-0.461120,-1.011642,-1.011642,-0.461120,-1.040149,-0.405172,-1.041400,-0.389278,-1.041400,0.389278,-1.021996,0.448997,-1.011642,0.461120,
-0.461120,1.011642,-0.405172,1.040149,-0.389278,1.041400,0.389278,1.041400,0.448997,1.021996,0.448997,1.021996,$1*%
G04 Aperture macros list end*
%ADD10C,0.121920*%
%ADD11C,0.300000*%
%ADD12C,0.127000*%
%ADD13C,0.101600*%
%ADD14C,0.152400*%
%ADD15O,7.000000X3.800000*%
%ADD16RoundRect,0.101600X-0.825000X0.825000X-0.825000X-0.825000X0.825000X-0.825000X0.825000X0.825000X0*%
%ADD17FreePoly0,270.000000*%
%ADD18RoundRect,0.101600X-1.558000X1.558000X-1.558000X-1.558000X1.558000X-1.558000X1.558000X1.558000X0*%
%ADD19C,1.853200*%
%ADD20O,1.625600X3.048000*%
%ADD21C,2.082800*%
%ADD22R,1.800000X1.800000*%
%ADD23C,1.800000*%
%ADD24R,1.700000X1.700000*%
%ADD25C,1.700000*%
%ADD26C,0.650000*%
%ADD27RoundRect,0.250000X-0.550000X0.550000X-0.550000X-0.550000X0.550000X-0.550000X0.550000X0.550000X0*%
%ADD28C,1.600000*%
%ADD29C,0.999997*%
%ADD30FreePoly1,90.000000*%
G04 APERTURE END LIST*
D10*
X11650787Y12007380D02*
X11657463Y12014057D01*
X11657463Y12014057D02*
X11670816Y12034086D01*
X11670816Y12034086D02*
X11677493Y12047440D01*
X11677493Y12047440D02*
X11684169Y12067469D01*
X11684169Y12067469D02*
X11690846Y12100852D01*
X11690846Y12100852D02*
X11690846Y12127558D01*
X11690846Y12127558D02*
X11684169Y12160941D01*
X11684169Y12160941D02*
X11677493Y12180971D01*
X11677493Y12180971D02*
X11670816Y12194324D01*
X11670816Y12194324D02*
X11657463Y12214354D01*
X11657463Y12214354D02*
X11650787Y12221030D01*
X11517255Y12074146D02*
X11523932Y12067469D01*
X11523932Y12067469D02*
X11543961Y12060793D01*
X11543961Y12060793D02*
X11557315Y12060793D01*
X11557315Y12060793D02*
X11577344Y12067469D01*
X11577344Y12067469D02*
X11590697Y12080822D01*
X11590697Y12080822D02*
X11597374Y12094176D01*
X11597374Y12094176D02*
X11604051Y12120882D01*
X11604051Y12120882D02*
X11604051Y12140912D01*
X11604051Y12140912D02*
X11597374Y12167618D01*
X11597374Y12167618D02*
X11590697Y12180971D01*
X11590697Y12180971D02*
X11577344Y12194324D01*
X11577344Y12194324D02*
X11557315Y12201001D01*
X11557315Y12201001D02*
X11543961Y12201001D01*
X11543961Y12201001D02*
X11523932Y12194324D01*
X11523932Y12194324D02*
X11517255Y12187648D01*
X11470519Y12007380D02*
X11463843Y12014057D01*
X11463843Y12014057D02*
X11450489Y12034086D01*
X11450489Y12034086D02*
X11443813Y12047440D01*
X11443813Y12047440D02*
X11437136Y12067469D01*
X11437136Y12067469D02*
X11430460Y12100852D01*
X11430460Y12100852D02*
X11430460Y12127558D01*
X11430460Y12127558D02*
X11437136Y12160941D01*
X11437136Y12160941D02*
X11443813Y12180971D01*
X11443813Y12180971D02*
X11450489Y12194324D01*
X11450489Y12194324D02*
X11463843Y12214354D01*
X11463843Y12214354D02*
X11470519Y12221030D01*
X11256869Y12060793D02*
X11256869Y12201001D01*
X11256869Y12201001D02*
X11223486Y12201001D01*
X11223486Y12201001D02*
X11203456Y12194324D01*
X11203456Y12194324D02*
X11190103Y12180971D01*
X11190103Y12180971D02*
X11183427Y12167618D01*
X11183427Y12167618D02*
X11176750Y12140912D01*
X11176750Y12140912D02*
X11176750Y12120882D01*
X11176750Y12120882D02*
X11183427Y12094176D01*
X11183427Y12094176D02*
X11190103Y12080822D01*
X11190103Y12080822D02*
X11203456Y12067469D01*
X11203456Y12067469D02*
X11223486Y12060793D01*
X11223486Y12060793D02*
X11256869Y12060793D01*
X11056572Y12060793D02*
X11056572Y12134235D01*
X11056572Y12134235D02*
X11063248Y12147588D01*
X11063248Y12147588D02*
X11076602Y12154265D01*
X11076602Y12154265D02*
X11103308Y12154265D01*
X11103308Y12154265D02*
X11116661Y12147588D01*
X11056572Y12067469D02*
X11069925Y12060793D01*
X11069925Y12060793D02*
X11103308Y12060793D01*
X11103308Y12060793D02*
X11116661Y12067469D01*
X11116661Y12067469D02*
X11123338Y12080822D01*
X11123338Y12080822D02*
X11123338Y12094176D01*
X11123338Y12094176D02*
X11116661Y12107529D01*
X11116661Y12107529D02*
X11103308Y12114205D01*
X11103308Y12114205D02*
X11069925Y12114205D01*
X11069925Y12114205D02*
X11056572Y12120882D01*
X10989806Y12060793D02*
X10989806Y12154265D01*
X10989806Y12201001D02*
X10996483Y12194324D01*
X10996483Y12194324D02*
X10989806Y12187648D01*
X10989806Y12187648D02*
X10983130Y12194324D01*
X10983130Y12194324D02*
X10989806Y12201001D01*
X10989806Y12201001D02*
X10989806Y12187648D01*
X10929717Y12067469D02*
X10916364Y12060793D01*
X10916364Y12060793D02*
X10889658Y12060793D01*
X10889658Y12060793D02*
X10876304Y12067469D01*
X10876304Y12067469D02*
X10869628Y12080822D01*
X10869628Y12080822D02*
X10869628Y12087499D01*
X10869628Y12087499D02*
X10876304Y12100852D01*
X10876304Y12100852D02*
X10889658Y12107529D01*
X10889658Y12107529D02*
X10909687Y12107529D01*
X10909687Y12107529D02*
X10923040Y12114205D01*
X10923040Y12114205D02*
X10929717Y12127558D01*
X10929717Y12127558D02*
X10929717Y12134235D01*
X10929717Y12134235D02*
X10923040Y12147588D01*
X10923040Y12147588D02*
X10909687Y12154265D01*
X10909687Y12154265D02*
X10889658Y12154265D01*
X10889658Y12154265D02*
X10876304Y12147588D01*
X10822892Y12154265D02*
X10789509Y12060793D01*
X10756126Y12154265D02*
X10789509Y12060793D01*
X10789509Y12060793D02*
X10802862Y12027410D01*
X10802862Y12027410D02*
X10809539Y12020733D01*
X10809539Y12020733D02*
X10822892Y12014057D01*
X10602565Y12187648D02*
X10595889Y12194324D01*
X10595889Y12194324D02*
X10582535Y12201001D01*
X10582535Y12201001D02*
X10549153Y12201001D01*
X10549153Y12201001D02*
X10535799Y12194324D01*
X10535799Y12194324D02*
X10529123Y12187648D01*
X10529123Y12187648D02*
X10522446Y12174294D01*
X10522446Y12174294D02*
X10522446Y12160941D01*
X10522446Y12160941D02*
X10529123Y12140912D01*
X10529123Y12140912D02*
X10609242Y12060793D01*
X10609242Y12060793D02*
X10522446Y12060793D01*
X10435651Y12201001D02*
X10422298Y12201001D01*
X10422298Y12201001D02*
X10408945Y12194324D01*
X10408945Y12194324D02*
X10402268Y12187648D01*
X10402268Y12187648D02*
X10395591Y12174294D01*
X10395591Y12174294D02*
X10388915Y12147588D01*
X10388915Y12147588D02*
X10388915Y12114205D01*
X10388915Y12114205D02*
X10395591Y12087499D01*
X10395591Y12087499D02*
X10402268Y12074146D01*
X10402268Y12074146D02*
X10408945Y12067469D01*
X10408945Y12067469D02*
X10422298Y12060793D01*
X10422298Y12060793D02*
X10435651Y12060793D01*
X10435651Y12060793D02*
X10449004Y12067469D01*
X10449004Y12067469D02*
X10455681Y12074146D01*
X10455681Y12074146D02*
X10462357Y12087499D01*
X10462357Y12087499D02*
X10469034Y12114205D01*
X10469034Y12114205D02*
X10469034Y12147588D01*
X10469034Y12147588D02*
X10462357Y12174294D01*
X10462357Y12174294D02*
X10455681Y12187648D01*
X10455681Y12187648D02*
X10449004Y12194324D01*
X10449004Y12194324D02*
X10435651Y12201001D01*
X10335502Y12187648D02*
X10328826Y12194324D01*
X10328826Y12194324D02*
X10315473Y12201001D01*
X10315473Y12201001D02*
X10282090Y12201001D01*
X10282090Y12201001D02*
X10268737Y12194324D01*
X10268737Y12194324D02*
X10262060Y12187648D01*
X10262060Y12187648D02*
X10255383Y12174294D01*
X10255383Y12174294D02*
X10255383Y12160941D01*
X10255383Y12160941D02*
X10262060Y12140912D01*
X10262060Y12140912D02*
X10342179Y12060793D01*
X10342179Y12060793D02*
X10255383Y12060793D01*
X10135205Y12201001D02*
X10161911Y12201001D01*
X10161911Y12201001D02*
X10175265Y12194324D01*
X10175265Y12194324D02*
X10181941Y12187648D01*
X10181941Y12187648D02*
X10195294Y12167618D01*
X10195294Y12167618D02*
X10201971Y12140912D01*
X10201971Y12140912D02*
X10201971Y12087499D01*
X10201971Y12087499D02*
X10195294Y12074146D01*
X10195294Y12074146D02*
X10188618Y12067469D01*
X10188618Y12067469D02*
X10175265Y12060793D01*
X10175265Y12060793D02*
X10148558Y12060793D01*
X10148558Y12060793D02*
X10135205Y12067469D01*
X10135205Y12067469D02*
X10128529Y12074146D01*
X10128529Y12074146D02*
X10121852Y12087499D01*
X10121852Y12087499D02*
X10121852Y12120882D01*
X10121852Y12120882D02*
X10128529Y12134235D01*
X10128529Y12134235D02*
X10135205Y12140912D01*
X10135205Y12140912D02*
X10148558Y12147588D01*
X10148558Y12147588D02*
X10175265Y12147588D01*
X10175265Y12147588D02*
X10188618Y12140912D01*
X10188618Y12140912D02*
X10195294Y12134235D01*
X10195294Y12134235D02*
X10201971Y12120882D01*
D11*
X11083085Y12380417D02*
X11133085Y12451846D01*
X11168799Y12380417D02*
X11168799Y12530417D01*
X11168799Y12530417D02*
X11111656Y12530417D01*
X11111656Y12530417D02*
X11097370Y12523274D01*
X11097370Y12523274D02*
X11090227Y12516131D01*
X11090227Y12516131D02*
X11083085Y12501846D01*
X11083085Y12501846D02*
X11083085Y12480417D01*
X11083085Y12480417D02*
X11090227Y12466131D01*
X11090227Y12466131D02*
X11097370Y12458989D01*
X11097370Y12458989D02*
X11111656Y12451846D01*
X11111656Y12451846D02*
X11168799Y12451846D01*
X10961656Y12387560D02*
X10975942Y12380417D01*
X10975942Y12380417D02*
X11004513Y12380417D01*
X11004513Y12380417D02*
X11018799Y12387560D01*
X11018799Y12387560D02*
X11025942Y12401846D01*
X11025942Y12401846D02*
X11025942Y12458989D01*
X11025942Y12458989D02*
X11018799Y12473274D01*
X11018799Y12473274D02*
X11004513Y12480417D01*
X11004513Y12480417D02*
X10975942Y12480417D01*
X10975942Y12480417D02*
X10961656Y12473274D01*
X10961656Y12473274D02*
X10954513Y12458989D01*
X10954513Y12458989D02*
X10954513Y12444703D01*
X10954513Y12444703D02*
X11025942Y12430417D01*
X10904513Y12480417D02*
X10868799Y12380417D01*
X10868799Y12380417D02*
X10833085Y12480417D01*
X10790228Y12530417D02*
X10697370Y12530417D01*
X10697370Y12530417D02*
X10747370Y12473274D01*
X10747370Y12473274D02*
X10725942Y12473274D01*
X10725942Y12473274D02*
X10711656Y12466131D01*
X10711656Y12466131D02*
X10704513Y12458989D01*
X10704513Y12458989D02*
X10697370Y12444703D01*
X10697370Y12444703D02*
X10697370Y12408989D01*
X10697370Y12408989D02*
X10704513Y12394703D01*
X10704513Y12394703D02*
X10711656Y12387560D01*
X10711656Y12387560D02*
X10725942Y12380417D01*
X10725942Y12380417D02*
X10768799Y12380417D01*
X10768799Y12380417D02*
X10783085Y12387560D01*
X10783085Y12387560D02*
X10790228Y12394703D01*
%TO.C,VR7*%
D12*
X11067750Y9338755D02*
G75*
G02*
X10607750Y9338755I-230000J0D01*
G01*
X10607750Y9338755D02*
G75*
G02*
X11067750Y9338755I230000J0D01*
G01*
X11217750Y8638755D02*
G75*
G02*
X10857750Y8638755I-180000J0D01*
G01*
X10857750Y8638755D02*
G75*
G02*
X11217750Y8638755I180000J0D01*
G01*
X11467750Y8638755D02*
G75*
G02*
X11107750Y8638755I-180000J0D01*
G01*
X11107750Y8638755D02*
G75*
G02*
X11467750Y8638755I180000J0D01*
G01*
X11717750Y8638755D02*
G75*
G02*
X11357750Y8638755I-180000J0D01*
G01*
X11357750Y8638755D02*
G75*
G02*
X11717750Y8638755I180000J0D01*
G01*
X11967750Y9338755D02*
G75*
G02*
X11507750Y9338755I-230000J0D01*
G01*
X11507750Y9338755D02*
G75*
G02*
X11967750Y9338755I230000J0D01*
G01*
%TO.C,VR3*%
X11067750Y11450000D02*
G75*
G02*
X10607750Y11450000I-230000J0D01*
G01*
X10607750Y11450000D02*
G75*
G02*
X11067750Y11450000I230000J0D01*
G01*
X11217750Y10750000D02*
G75*
G02*
X10857750Y10750000I-180000J0D01*
G01*
X10857750Y10750000D02*
G75*
G02*
X11217750Y10750000I180000J0D01*
G01*
X11467750Y10750000D02*
G75*
G02*
X11107750Y10750000I-180000J0D01*
G01*
X11107750Y10750000D02*
G75*
G02*
X11467750Y10750000I180000J0D01*
G01*
X11717750Y10750000D02*
G75*
G02*
X11357750Y10750000I-180000J0D01*
G01*
X11357750Y10750000D02*
G75*
G02*
X11717750Y10750000I180000J0D01*
G01*
X11967750Y11450000D02*
G75*
G02*
X11507750Y11450000I-230000J0D01*
G01*
X11507750Y11450000D02*
G75*
G02*
X11967750Y11450000I230000J0D01*
G01*
%TO.C,VR5*%
X7575250Y9338755D02*
G75*
G02*
X7115250Y9338755I-230000J0D01*
G01*
X7115250Y9338755D02*
G75*
G02*
X7575250Y9338755I230000J0D01*
G01*
X7725250Y8638755D02*
G75*
G02*
X7365250Y8638755I-180000J0D01*
G01*
X7365250Y8638755D02*
G75*
G02*
X7725250Y8638755I180000J0D01*
G01*
X7975250Y8638755D02*
G75*
G02*
X7615250Y8638755I-180000J0D01*
G01*
X7615250Y8638755D02*
G75*
G02*
X7975250Y8638755I180000J0D01*
G01*
X8225250Y8638755D02*
G75*
G02*
X7865250Y8638755I-180000J0D01*
G01*
X7865250Y8638755D02*
G75*
G02*
X8225250Y8638755I180000J0D01*
G01*
X8475250Y9338755D02*
G75*
G02*
X8015250Y9338755I-230000J0D01*
G01*
X8015250Y9338755D02*
G75*
G02*
X8475250Y9338755I230000J0D01*
G01*
%TO.C,SW4*%
D13*
X9541500Y1095000D02*
G75*
G02*
X9033500Y1095000I-254000J0D01*
G01*
X9033500Y1095000D02*
G75*
G02*
X9541500Y1095000I254000J0D01*
G01*
X9795500Y1095000D02*
G75*
G02*
X9287500Y1095000I-254000J0D01*
G01*
X9287500Y1095000D02*
G75*
G02*
X9795500Y1095000I254000J0D01*
G01*
X10049500Y1095000D02*
G75*
G02*
X9541500Y1095000I-254000J0D01*
G01*
X9541500Y1095000D02*
G75*
G02*
X10049500Y1095000I254000J0D01*
G01*
%TO.C,SW1*%
X4153430Y1341120D02*
G75*
G02*
X3801830Y1341120I-175800J0D01*
G01*
X3801830Y1341120D02*
G75*
G02*
X4153430Y1341120I175800J0D01*
G01*
X4153430Y889000D02*
G75*
G02*
X3801830Y889000I-175800J0D01*
G01*
X3801830Y889000D02*
G75*
G02*
X4153430Y889000I175800J0D01*
G01*
X4803670Y1341120D02*
G75*
G02*
X4452070Y1341120I-175800J0D01*
G01*
X4452070Y1341120D02*
G75*
G02*
X4803670Y1341120I175800J0D01*
G01*
X4803670Y889000D02*
G75*
G02*
X4452070Y889000I-175800J0D01*
G01*
X4452070Y889000D02*
G75*
G02*
X4803670Y889000I175800J0D01*
G01*
%TO.C,VR1*%
D12*
X7575250Y11450000D02*
G75*
G02*
X7115250Y11450000I-230000J0D01*
G01*
X7115250Y11450000D02*
G75*
G02*
X7575250Y11450000I230000J0D01*
G01*
X7725250Y10750000D02*
G75*
G02*
X7365250Y10750000I-180000J0D01*
G01*
X7365250Y10750000D02*
G75*
G02*
X7725250Y10750000I180000J0D01*
G01*
X7975250Y10750000D02*
G75*
G02*
X7615250Y10750000I-180000J0D01*
G01*
X7615250Y10750000D02*
G75*
G02*
X7975250Y10750000I180000J0D01*
G01*
X8225250Y10750000D02*
G75*
G02*
X7865250Y10750000I-180000J0D01*
G01*
X7865250Y10750000D02*
G75*
G02*
X8225250Y10750000I180000J0D01*
G01*
X8475250Y11450000D02*
G75*
G02*
X8015250Y11450000I-230000J0D01*
G01*
X8015250Y11450000D02*
G75*
G02*
X8475250Y11450000I230000J0D01*
G01*
%TO.C,J_MIDI_THRU1*%
X6229000Y9745660D02*
G75*
G02*
X5869000Y9745660I-180000J0D01*
G01*
X5869000Y9745660D02*
G75*
G02*
X6229000Y9745660I180000J0D01*
G01*
X6229000Y8895660D02*
G75*
G02*
X5869000Y8895660I-180000J0D01*
G01*
X5869000Y8895660D02*
G75*
G02*
X6229000Y8895660I180000J0D01*
G01*
X6229000Y8595660D02*
G75*
G02*
X5869000Y8595660I-180000J0D01*
G01*
X5869000Y8595660D02*
G75*
G02*
X6229000Y8595660I180000J0D01*
G01*
%TO.C,J_MIDI_OUT1*%
X6229000Y7622490D02*
G75*
G02*
X5869000Y7622490I-180000J0D01*
G01*
X5869000Y7622490D02*
G75*
G02*
X6229000Y7622490I180000J0D01*
G01*
X6229000Y6772490D02*
G75*
G02*
X5869000Y6772490I-180000J0D01*
G01*
X5869000Y6772490D02*
G75*
G02*
X6229000Y6772490I180000J0D01*
G01*
X6229000Y6472490D02*
G75*
G02*
X5869000Y6472490I-180000J0D01*
G01*
X5869000Y6472490D02*
G75*
G02*
X6229000Y6472490I180000J0D01*
G01*
%TO.C,VR4*%
X12814000Y11450000D02*
G75*
G02*
X12354000Y11450000I-230000J0D01*
G01*
X12354000Y11450000D02*
G75*
G02*
X12814000Y11450000I230000J0D01*
G01*
X12964000Y10750000D02*
G75*
G02*
X12604000Y10750000I-180000J0D01*
G01*
X12604000Y10750000D02*
G75*
G02*
X12964000Y10750000I180000J0D01*
G01*
X13214000Y10750000D02*
G75*
G02*
X12854000Y10750000I-180000J0D01*
G01*
X12854000Y10750000D02*
G75*
G02*
X13214000Y10750000I180000J0D01*
G01*
X13464000Y10750000D02*
G75*
G02*
X13104000Y10750000I-180000J0D01*
G01*
X13104000Y10750000D02*
G75*
G02*
X13464000Y10750000I180000J0D01*
G01*
X13714000Y11450000D02*
G75*
G02*
X13254000Y11450000I-230000J0D01*
G01*
X13254000Y11450000D02*
G75*
G02*
X13714000Y11450000I230000J0D01*
G01*
%TO.C,SW2*%
D13*
X5899680Y1345000D02*
G75*
G02*
X5548080Y1345000I-175800J0D01*
G01*
X5548080Y1345000D02*
G75*
G02*
X5899680Y1345000I175800J0D01*
G01*
X5899680Y892880D02*
G75*
G02*
X5548080Y892880I-175800J0D01*
G01*
X5548080Y892880D02*
G75*
G02*
X5899680Y892880I175800J0D01*
G01*
X6549920Y1345000D02*
G75*
G02*
X6198320Y1345000I-175800J0D01*
G01*
X6198320Y1345000D02*
G75*
G02*
X6549920Y1345000I175800J0D01*
G01*
X6549920Y892880D02*
G75*
G02*
X6198320Y892880I-175800J0D01*
G01*
X6198320Y892880D02*
G75*
G02*
X6549920Y892880I175800J0D01*
G01*
%TO.C,VR6*%
D12*
X9321500Y9338755D02*
G75*
G02*
X8861500Y9338755I-230000J0D01*
G01*
X8861500Y9338755D02*
G75*
G02*
X9321500Y9338755I230000J0D01*
G01*
X9471500Y8638755D02*
G75*
G02*
X9111500Y8638755I-180000J0D01*
G01*
X9111500Y8638755D02*
G75*
G02*
X9471500Y8638755I180000J0D01*
G01*
X9721500Y8638755D02*
G75*
G02*
X9361500Y8638755I-180000J0D01*
G01*
X9361500Y8638755D02*
G75*
G02*
X9721500Y8638755I180000J0D01*
G01*
X9971500Y8638755D02*
G75*
G02*
X9611500Y8638755I-180000J0D01*
G01*
X9611500Y8638755D02*
G75*
G02*
X9971500Y8638755I180000J0D01*
G01*
X10221500Y9338755D02*
G75*
G02*
X9761500Y9338755I-230000J0D01*
G01*
X9761500Y9338755D02*
G75*
G02*
X10221500Y9338755I230000J0D01*
G01*
%TO.C,J_MIDI_IN1*%
X6229000Y11856905D02*
G75*
G02*
X5869000Y11856905I-180000J0D01*
G01*
X5869000Y11856905D02*
G75*
G02*
X6229000Y11856905I180000J0D01*
G01*
X6229000Y11006905D02*
G75*
G02*
X5869000Y11006905I-180000J0D01*
G01*
X5869000Y11006905D02*
G75*
G02*
X6229000Y11006905I180000J0D01*
G01*
X6229000Y10706905D02*
G75*
G02*
X5869000Y10706905I-180000J0D01*
G01*
X5869000Y10706905D02*
G75*
G02*
X6229000Y10706905I180000J0D01*
G01*
%TO.C,SW3*%
D14*
X7825231Y1095000D02*
G75*
G02*
X7257269Y1095000I-283981J0D01*
G01*
X7257269Y1095000D02*
G75*
G02*
X7825231Y1095000I283981J0D01*
G01*
X8079231Y1095000D02*
G75*
G02*
X7511269Y1095000I-283981J0D01*
G01*
X7511269Y1095000D02*
G75*
G02*
X8079231Y1095000I283981J0D01*
G01*
X8328938Y1095000D02*
G75*
G02*
X7769562Y1095000I-279688J0D01*
G01*
X7769562Y1095000D02*
G75*
G02*
X8328938Y1095000I279688J0D01*
G01*
%TO.C,VR8*%
D12*
X12814000Y9338755D02*
G75*
G02*
X12354000Y9338755I-230000J0D01*
G01*
X12354000Y9338755D02*
G75*
G02*
X12814000Y9338755I230000J0D01*
G01*
X12964000Y8638755D02*
G75*
G02*
X12604000Y8638755I-180000J0D01*
G01*
X12604000Y8638755D02*
G75*
G02*
X12964000Y8638755I180000J0D01*
G01*
X13214000Y8638755D02*
G75*
G02*
X12854000Y8638755I-180000J0D01*
G01*
X12854000Y8638755D02*
G75*
G02*
X13214000Y8638755I180000J0D01*
G01*
X13464000Y8638755D02*
G75*
G02*
X13104000Y8638755I-180000J0D01*
G01*
X13104000Y8638755D02*
G75*
G02*
X13464000Y8638755I180000J0D01*
G01*
X13714000Y9338755D02*
G75*
G02*
X13254000Y9338755I-230000J0D01*
G01*
X13254000Y9338755D02*
G75*
G02*
X13714000Y9338755I230000J0D01*
G01*
%TO.C,VR2*%
X9321500Y11450000D02*
G75*
G02*
X8861500Y11450000I-230000J0D01*
G01*
X8861500Y11450000D02*
G75*
G02*
X9321500Y11450000I230000J0D01*
G01*
X9471500Y10750000D02*
G75*
G02*
X9111500Y10750000I-180000J0D01*
G01*
X9111500Y10750000D02*
G75*
G02*
X9471500Y10750000I180000J0D01*
G01*
X9721500Y10750000D02*
G75*
G02*
X9361500Y10750000I-180000J0D01*
G01*
X9361500Y10750000D02*
G75*
G02*
X9721500Y10750000I180000J0D01*
G01*
X9971500Y10750000D02*
G75*
G02*
X9611500Y10750000I-180000J0D01*
G01*
X9611500Y10750000D02*
G75*
G02*
X9971500Y10750000I180000J0D01*
G01*
X10221500Y11450000D02*
G75*
G02*
X9761500Y11450000I-230000J0D01*
G01*
X9761500Y11450000D02*
G75*
G02*
X10221500Y11450000I230000J0D01*
G01*
%TD*%
%LPC*%
D15*
%TO.C,H1*%
X750000Y12550000D03*
%TD*%
D16*
%TO.C,VR7*%
X11037750Y8638755D03*
D17*
X11287750Y8638755D03*
X11537750Y8638755D03*
D18*
X10837750Y9338755D03*
X11737750Y9338755D03*
%TD*%
D19*
%TO.C,J_AUDIO_IN_R1*%
X11287750Y2250000D03*
X11287750Y2550000D03*
X11287750Y3400000D03*
%TD*%
D16*
%TO.C,VR3*%
X11037750Y10750000D03*
D17*
X11287750Y10750000D03*
X11537750Y10750000D03*
D18*
X10837750Y11450000D03*
X11737750Y11450000D03*
%TD*%
D16*
%TO.C,VR5*%
X7545250Y8638755D03*
D17*
X7795250Y8638755D03*
X8045250Y8638755D03*
D18*
X7345250Y9338755D03*
X8245250Y9338755D03*
%TD*%
D20*
%TO.C,SW4*%
X9287500Y1095000D03*
X9541500Y1095000D03*
X9795500Y1095000D03*
%TD*%
D21*
%TO.C,SW1*%
X3977630Y1341120D03*
X4627870Y1341120D03*
X3977630Y889000D03*
X4627870Y889000D03*
%TD*%
D16*
%TO.C,VR1*%
X7545250Y10750000D03*
D17*
X7795250Y10750000D03*
X8045250Y10750000D03*
D18*
X7345250Y11450000D03*
X8245250Y11450000D03*
%TD*%
D19*
%TO.C,J_MIDI_THRU1*%
X6049000Y8595660D03*
X6049000Y8895660D03*
X6049000Y9745660D03*
%TD*%
%TO.C,J_CV_OUT_1*%
X7795250Y4361245D03*
X7795250Y4661245D03*
X7795250Y5511245D03*
%TD*%
%TO.C,J_MIDI_OUT1*%
X6049000Y6472490D03*
X6049000Y6772490D03*
X6049000Y7622490D03*
%TD*%
D22*
%TO.C,LED2*%
X6049000Y2964425D03*
D23*
X6049000Y2710425D03*
%TD*%
D24*
%TO.C,A1*%
X279500Y3845500D03*
D25*
X533500Y3845500D03*
X787500Y3845500D03*
X1041500Y3845500D03*
X1295500Y3845500D03*
X1549500Y3845500D03*
X1803500Y3845500D03*
X2057500Y3845500D03*
X2311500Y3845500D03*
X2565500Y3845500D03*
X2819500Y3845500D03*
X3073500Y3845500D03*
X3327500Y3845500D03*
X3581500Y3845500D03*
X3835500Y3845500D03*
X4089500Y3845500D03*
X4343500Y3845500D03*
X4597500Y3845500D03*
X4851500Y3845500D03*
X5105500Y3845500D03*
X5105500Y5369500D03*
X4851500Y5369500D03*
X4597500Y5369500D03*
X4343500Y5369500D03*
X4089500Y5369500D03*
X3835500Y5369500D03*
X3581500Y5369500D03*
X3327500Y5369500D03*
X3073500Y5369500D03*
X2819500Y5369500D03*
X2565500Y5369500D03*
X2311500Y5369500D03*
X2057500Y5369500D03*
X1803500Y5369500D03*
X1549500Y5369500D03*
X1295500Y5369500D03*
X1041500Y5369500D03*
X787500Y5369500D03*
X533500Y5369500D03*
X279500Y5369500D03*
%TD*%
D19*
%TO.C,J_CV_OUT_2*%
X9541500Y4361245D03*
X9541500Y4661245D03*
X9541500Y5511245D03*
%TD*%
D16*
%TO.C,VR4*%
X12784000Y10750000D03*
D17*
X13034000Y10750000D03*
X13284000Y10750000D03*
D18*
X12584000Y11450000D03*
X13484000Y11450000D03*
%TD*%
D19*
%TO.C,J_AUDIO_IN_L1*%
X11287750Y4361245D03*
X11287750Y4661245D03*
X11287750Y5511245D03*
%TD*%
%TO.C,J_GATE_IN_1*%
X7795250Y2250000D03*
X7795250Y2550000D03*
X7795250Y3400000D03*
%TD*%
%TO.C,J_CV_IN_1*%
X7795250Y6472490D03*
X7795250Y6772490D03*
X7795250Y7622490D03*
%TD*%
D21*
%TO.C,SW2*%
X5723880Y1345000D03*
X6374120Y1345000D03*
X5723880Y892880D03*
X6374120Y892880D03*
%TD*%
D26*
%TO.C,J7*%
X600000Y8155000D03*
X600000Y7577000D03*
%TD*%
D15*
%TO.C,H2*%
X750000Y300000D03*
%TD*%
D16*
%TO.C,VR6*%
X9291500Y8638755D03*
D17*
X9541500Y8638755D03*
X9791500Y8638755D03*
D18*
X9091500Y9338755D03*
X9991500Y9338755D03*
%TD*%
D19*
%TO.C,J_MIDI_IN1*%
X6049000Y10706905D03*
X6049000Y11006905D03*
X6049000Y11856905D03*
%TD*%
%TO.C,J_CV_IN_2*%
X9541500Y6472490D03*
X9541500Y6772490D03*
X9541500Y7622490D03*
%TD*%
D20*
%TO.C,SW3*%
X7541250Y1095000D03*
X7795250Y1095000D03*
X8049250Y1095000D03*
%TD*%
D22*
%TO.C,LED1*%
X4302750Y3160925D03*
D23*
X4302750Y2945025D03*
X4302750Y2729125D03*
X4302750Y2513225D03*
%TD*%
D15*
%TO.C,H3*%
X13440000Y12550000D03*
%TD*%
D19*
%TO.C,J_CV_IN_3*%
X11287750Y6472490D03*
X11287750Y6772490D03*
X11287750Y7622490D03*
%TD*%
D16*
%TO.C,VR8*%
X12784000Y8638755D03*
D17*
X13034000Y8638755D03*
X13284000Y8638755D03*
D18*
X12584000Y9338755D03*
X13484000Y9338755D03*
%TD*%
D27*
%TO.C,U11*%
X4779000Y9897500D03*
D28*
X4525000Y9897500D03*
X4271000Y9897500D03*
X4271000Y9135500D03*
X4525000Y9135500D03*
X4779000Y9135500D03*
%TD*%
D29*
%TO.C,U7*%
X474440Y3205380D03*
X474440Y2407820D03*
%TD*%
D30*
%TO.C,P1*%
X1121400Y9263000D03*
X1375400Y9263000D03*
X1096000Y9517000D03*
X1350000Y9517000D03*
X1121400Y9771000D03*
X1375400Y9771000D03*
X1096000Y9009000D03*
X1350000Y9009000D03*
X1096000Y10025000D03*
X1350000Y10025000D03*
%TD*%
D19*
%TO.C,J_GATE_IN_2*%
X9541500Y2250000D03*
X9541500Y2550000D03*
X9541500Y3400000D03*
%TD*%
%TO.C,J_CV_IN_4*%
X13034000Y6472490D03*
X13034000Y6772490D03*
X13034000Y7622490D03*
%TD*%
%TO.C,J_AUDIO_OUT_L1*%
X13034000Y4361245D03*
X13034000Y4661245D03*
X13034000Y5511245D03*
%TD*%
D16*
%TO.C,VR2*%
X9291500Y10750000D03*
D17*
X9541500Y10750000D03*
X9791500Y10750000D03*
D18*
X9091500Y11450000D03*
X9991500Y11450000D03*
%TD*%
D15*
%TO.C,H4*%
X13440000Y300000D03*
%TD*%
D19*
%TO.C,J_AUDIO_OUT_R1*%
X13034000Y2250000D03*
X13034000Y2550000D03*
X13034000Y3400000D03*
%TD*%
%LPD*%
M02*
