%TF.GenerationSoftware,KiCad,Pcbnew,9.0.2*%
%TF.CreationDate,2025-07-29T12:02:06-07:00*%
%TF.ProjectId,Seed3-DevKit-Eurorack-Rev1,53656564-332d-4446-9576-4b69742d4575,rev?*%
%TF.SameCoordinates,Original*%
%TF.FileFunction,Paste,Top*%
%TF.FilePolarity,Positive*%
%FSLAX45Y45*%
G04 Gerber Fmt 4.5, Leading zero omitted, Abs format (unit mm)*
G04 Created by KiCad (PCBNEW 9.0.2) date 2025-07-29 12:02:06*
%MOMM*%
%LPD*%
G01*
G04 APERTURE LIST*
G04 Aperture macros list*
%AMRoundRect*
0 Rectangle with rounded corners*
0 $1 Rounding radius*
0 $2 $3 $4 $5 $6 $7 $8 $9 X,Y pos of 4 corners*
0 Add a 4 corners polygon primitive as box body*
4,1,4,$2,$3,$4,$5,$6,$7,$8,$9,$2,$3,0*
0 Add four circle primitives for the rounded corners*
1,1,$1+$1,$2,$3*
1,1,$1+$1,$4,$5*
1,1,$1+$1,$6,$7*
1,1,$1+$1,$8,$9*
0 Add four rect primitives between the rounded corners*
20,1,$1+$1,$2,$3,$4,$5,0*
20,1,$1+$1,$4,$5,$6,$7,0*
20,1,$1+$1,$6,$7,$8,$9,0*
20,1,$1+$1,$8,$9,$2,$3,0*%
G04 Aperture macros list end*
%ADD10RoundRect,0.200000X-0.275000X0.200000X-0.275000X-0.200000X0.275000X-0.200000X0.275000X0.200000X0*%
%ADD11RoundRect,0.225000X-0.225000X-0.250000X0.225000X-0.250000X0.225000X0.250000X-0.225000X0.250000X0*%
%ADD12RoundRect,0.225000X-0.250000X0.225000X-0.250000X-0.225000X0.250000X-0.225000X0.250000X0.225000X0*%
%ADD13RoundRect,0.200000X0.275000X-0.200000X0.275000X0.200000X-0.275000X0.200000X-0.275000X-0.200000X0*%
%ADD14RoundRect,0.200000X0.200000X0.275000X-0.200000X0.275000X-0.200000X-0.275000X0.200000X-0.275000X0*%
%ADD15RoundRect,0.200000X-0.200000X-0.275000X0.200000X-0.275000X0.200000X0.275000X-0.200000X0.275000X0*%
%ADD16RoundRect,0.150000X0.587500X0.150000X-0.587500X0.150000X-0.587500X-0.150000X0.587500X-0.150000X0*%
%ADD17RoundRect,0.150000X0.825000X0.150000X-0.825000X0.150000X-0.825000X-0.150000X0.825000X-0.150000X0*%
%ADD18RoundRect,0.112500X-0.112500X0.187500X-0.112500X-0.187500X0.112500X-0.187500X0.112500X0.187500X0*%
%ADD19RoundRect,0.250000X-0.625000X0.312500X-0.625000X-0.312500X0.625000X-0.312500X0.625000X0.312500X0*%
%ADD20RoundRect,0.250000X1.500000X0.550000X-1.500000X0.550000X-1.500000X-0.550000X1.500000X-0.550000X0*%
%ADD21RoundRect,0.225000X0.250000X-0.225000X0.250000X0.225000X-0.250000X0.225000X-0.250000X-0.225000X0*%
%ADD22RoundRect,0.150000X0.150000X-0.725000X0.150000X0.725000X-0.150000X0.725000X-0.150000X-0.725000X0*%
%ADD23RoundRect,0.250000X-0.475000X0.250000X-0.475000X-0.250000X0.475000X-0.250000X0.475000X0.250000X0*%
%ADD24R,1.150000X0.600000*%
%ADD25R,1.150000X0.300000*%
%ADD26R,2.000000X2.180000*%
%ADD27RoundRect,0.150000X-0.512500X-0.150000X0.512500X-0.150000X0.512500X0.150000X-0.512500X0.150000X0*%
%ADD28RoundRect,0.225000X0.225000X0.250000X-0.225000X0.250000X-0.225000X-0.250000X0.225000X-0.250000X0*%
%ADD29R,1.300000X0.700000*%
%ADD30R,1.651000X1.447800*%
%ADD31R,2.438400X1.447800*%
%ADD32R,1.651000X1.854200*%
%ADD33RoundRect,0.250000X-0.550000X1.500000X-0.550000X-1.500000X0.550000X-1.500000X0.550000X1.500000X0*%
%ADD34RoundRect,0.150000X0.150000X-0.825000X0.150000X0.825000X-0.150000X0.825000X-0.150000X-0.825000X0*%
G04 APERTURE END LIST*
D10*
%TO.C,R24*%
X8144500Y3136500D03*
X8144500Y2971500D03*
%TD*%
%TO.C,FB2*%
X1794500Y9073750D03*
X1794500Y8908750D03*
%TD*%
D11*
%TO.C,C47*%
X6430000Y8991250D03*
X6585000Y8991250D03*
%TD*%
D12*
%TO.C,C6*%
X4652000Y5433375D03*
X4652000Y5278375D03*
%TD*%
D13*
%TO.C,R50*%
X775000Y3235000D03*
X775000Y3400000D03*
%TD*%
D14*
%TO.C,R45*%
X3445500Y7016250D03*
X3280500Y7016250D03*
%TD*%
D15*
%TO.C,R2*%
X1167510Y6680000D03*
X1332510Y6680000D03*
%TD*%
%TO.C,R31*%
X7363500Y3212750D03*
X7528500Y3212750D03*
%TD*%
D14*
%TO.C,R67*%
X11846500Y2415500D03*
X11681500Y2415500D03*
%TD*%
D15*
%TO.C,R49*%
X6728500Y4736750D03*
X6893500Y4736750D03*
%TD*%
D12*
%TO.C,C33*%
X2175500Y8225500D03*
X2175500Y8070500D03*
%TD*%
D11*
%TO.C,C14*%
X3241000Y5428750D03*
X3396000Y5428750D03*
%TD*%
D15*
%TO.C,R73*%
X11681500Y2733000D03*
X11846500Y2733000D03*
%TD*%
D13*
%TO.C,R51*%
X525000Y3235000D03*
X525000Y3400000D03*
%TD*%
D16*
%TO.C,Q2*%
X7793750Y2959000D03*
X7793750Y3149000D03*
X7606250Y3054000D03*
%TD*%
D15*
%TO.C,R57*%
X6855500Y5689250D03*
X7020500Y5689250D03*
%TD*%
D11*
%TO.C,C4*%
X10543500Y3831875D03*
X10698500Y3831875D03*
%TD*%
D17*
%TO.C,U12*%
X5128250Y5594000D03*
X5128250Y5721000D03*
X5128250Y5848000D03*
X5128250Y5975000D03*
X5128250Y6102000D03*
X5128250Y6229000D03*
X5128250Y6356000D03*
X5128250Y6483000D03*
X4633250Y6483000D03*
X4633250Y6356000D03*
X4633250Y6229000D03*
X4633250Y6102000D03*
X4633250Y5975000D03*
X4633250Y5848000D03*
X4633250Y5721000D03*
X4633250Y5594000D03*
%TD*%
D14*
%TO.C,R10*%
X5814000Y6927500D03*
X5649000Y6927500D03*
%TD*%
D10*
%TO.C,R80*%
X11668750Y3831500D03*
X11668750Y3666500D03*
%TD*%
%TO.C,R44*%
X2366000Y2692000D03*
X2366000Y2527000D03*
%TD*%
D18*
%TO.C,D2*%
X1985000Y8261000D03*
X1985000Y8051000D03*
%TD*%
D19*
%TO.C,R9*%
X1357500Y5422750D03*
X1357500Y5130250D03*
%TD*%
D14*
%TO.C,R38*%
X4036000Y5587500D03*
X3871000Y5587500D03*
%TD*%
D13*
%TO.C,R52*%
X1550000Y3235000D03*
X1550000Y3400000D03*
%TD*%
D20*
%TO.C,C49*%
X969000Y5149500D03*
X429000Y5149500D03*
%TD*%
D10*
%TO.C,R17*%
X6431500Y3136250D03*
X6431500Y2971250D03*
%TD*%
%TO.C,R43*%
X3827500Y2357500D03*
X3827500Y2192500D03*
%TD*%
D15*
%TO.C,R23*%
X5650500Y3212500D03*
X5815500Y3212500D03*
%TD*%
%TO.C,R47*%
X3280500Y6540000D03*
X3445500Y6540000D03*
%TD*%
D10*
%TO.C,R60*%
X6684000Y5867000D03*
X6684000Y5702000D03*
%TD*%
D15*
%TO.C,R65*%
X10427375Y2752375D03*
X10592375Y2752375D03*
%TD*%
D14*
%TO.C,R32*%
X3561250Y7721500D03*
X3396250Y7721500D03*
%TD*%
D10*
%TO.C,R66*%
X10271750Y2755500D03*
X10271750Y2590500D03*
%TD*%
D13*
%TO.C,R54*%
X1050000Y3235000D03*
X1050000Y3400000D03*
%TD*%
D11*
%TO.C,C1*%
X4574500Y8038750D03*
X4729500Y8038750D03*
%TD*%
D19*
%TO.C,R5*%
X1357500Y6184750D03*
X1357500Y5892250D03*
%TD*%
D15*
%TO.C,R1*%
X1167510Y7230000D03*
X1332510Y7230000D03*
%TD*%
D10*
%TO.C,R79*%
X11541750Y3069500D03*
X11541750Y2904500D03*
%TD*%
D14*
%TO.C,R64*%
X10592375Y2434875D03*
X10427375Y2434875D03*
%TD*%
D15*
%TO.C,R36*%
X3871000Y5111250D03*
X4036000Y5111250D03*
%TD*%
D10*
%TO.C,R29*%
X5668000Y8851500D03*
X5668000Y8686500D03*
%TD*%
D12*
%TO.C,C19*%
X3636000Y5601500D03*
X3636000Y5446500D03*
%TD*%
D21*
%TO.C,C3*%
X12303750Y2973000D03*
X12303750Y3128000D03*
%TD*%
D22*
%TO.C,U13*%
X6747500Y4955500D03*
X6874500Y4955500D03*
X7001500Y4955500D03*
X7128500Y4955500D03*
X7128500Y5470500D03*
X7001500Y5470500D03*
X6874500Y5470500D03*
X6747500Y5470500D03*
%TD*%
D15*
%TO.C,R3*%
X4236125Y8038750D03*
X4401125Y8038750D03*
%TD*%
%TO.C,R37*%
X3871000Y5270000D03*
X4036000Y5270000D03*
%TD*%
D13*
%TO.C,R53*%
X1300000Y3235000D03*
X1300000Y3400000D03*
%TD*%
D15*
%TO.C,R34*%
X3236000Y5587500D03*
X3401000Y5587500D03*
%TD*%
D14*
%TO.C,R56*%
X7020500Y5848000D03*
X6855500Y5848000D03*
%TD*%
D15*
%TO.C,R41*%
X3820250Y6857500D03*
X3985250Y6857500D03*
%TD*%
%TO.C,R78*%
X11840250Y3685500D03*
X12005250Y3685500D03*
%TD*%
D14*
%TO.C,R33*%
X3401000Y5270000D03*
X3236000Y5270000D03*
%TD*%
D15*
%TO.C,R39*%
X3820250Y7016250D03*
X3985250Y7016250D03*
%TD*%
D23*
%TO.C,C51*%
X2366000Y8261000D03*
X2366000Y8071000D03*
%TD*%
D10*
%TO.C,R28*%
X7985750Y3136500D03*
X7985750Y2971500D03*
%TD*%
D24*
%TO.C,J7*%
X707500Y7311000D03*
X707500Y7231000D03*
D25*
X707500Y7116000D03*
X707500Y7016000D03*
X707500Y6966000D03*
X707500Y6866000D03*
D24*
X707500Y6671000D03*
X707500Y6751000D03*
D25*
X707500Y6816000D03*
X707500Y6916000D03*
X707500Y7066000D03*
X707500Y7166000D03*
D26*
X650000Y7502000D03*
X650000Y6480000D03*
X257000Y7502000D03*
X257000Y6480000D03*
%TD*%
D27*
%TO.C,U14*%
X1281260Y7050000D03*
X1281260Y6955000D03*
X1281260Y6860000D03*
X1508760Y6860000D03*
X1508760Y6955000D03*
X1508760Y7050000D03*
%TD*%
D13*
%TO.C,R6*%
X5477500Y8686500D03*
X5477500Y8851500D03*
%TD*%
D11*
%TO.C,C22*%
X11845250Y3844250D03*
X12000250Y3844250D03*
%TD*%
D22*
%TO.C,U15*%
X11732250Y2951750D03*
X11859250Y2951750D03*
X11986250Y2951750D03*
X12113250Y2951750D03*
X12113250Y3466750D03*
X11986250Y3466750D03*
X11859250Y3466750D03*
X11732250Y3466750D03*
%TD*%
D14*
%TO.C,R19*%
X5815500Y2895000D03*
X5650500Y2895000D03*
%TD*%
D16*
%TO.C,U3*%
X3382000Y7340750D03*
X3382000Y7530750D03*
X3194500Y7435750D03*
%TD*%
D28*
%TO.C,C16*%
X3980250Y6698750D03*
X3825250Y6698750D03*
%TD*%
D22*
%TO.C,U1*%
X10430500Y2955250D03*
X10557500Y2955250D03*
X10684500Y2955250D03*
X10811500Y2955250D03*
X10811500Y3470250D03*
X10684500Y3470250D03*
X10557500Y3470250D03*
X10430500Y3470250D03*
%TD*%
D21*
%TO.C,C5*%
X11002000Y3008250D03*
X11002000Y3163250D03*
%TD*%
D16*
%TO.C,Q1*%
X6080750Y2958750D03*
X6080750Y3148750D03*
X5893250Y3053750D03*
%TD*%
D14*
%TO.C,R30*%
X7528500Y2895250D03*
X7363500Y2895250D03*
%TD*%
D12*
%TO.C,C2*%
X2175500Y9054750D03*
X2175500Y8899750D03*
%TD*%
D15*
%TO.C,R59*%
X5649000Y6768750D03*
X5814000Y6768750D03*
%TD*%
D10*
%TO.C,R55*%
X6557000Y4978000D03*
X6557000Y4813000D03*
%TD*%
D11*
%TO.C,C21*%
X11686500Y2574250D03*
X11841500Y2574250D03*
%TD*%
D14*
%TO.C,R48*%
X6893500Y4578000D03*
X6728500Y4578000D03*
%TD*%
D28*
%TO.C,C15*%
X4031000Y5428750D03*
X3876000Y5428750D03*
%TD*%
D12*
%TO.C,C13*%
X3574000Y7513250D03*
X3574000Y7358250D03*
%TD*%
D11*
%TO.C,C18*%
X3285500Y6698750D03*
X3440500Y6698750D03*
%TD*%
D10*
%TO.C,R40*%
X2541000Y2692000D03*
X2541000Y2527000D03*
%TD*%
D18*
%TO.C,D1*%
X1985000Y9086500D03*
X1985000Y8876500D03*
%TD*%
D29*
%TO.C,U7*%
X1544880Y1607020D03*
X1544880Y1717020D03*
X1544880Y1827020D03*
X1544880Y1937020D03*
X1544880Y2047020D03*
X1544880Y2157020D03*
X1544880Y2267020D03*
X1544880Y2377020D03*
X1544880Y2487020D03*
D30*
X1467500Y2628860D03*
D31*
X497500Y2628860D03*
X497500Y1046380D03*
D32*
X1467500Y1123880D03*
%TD*%
D12*
%TO.C,C20*%
X7319000Y5131750D03*
X7319000Y4976750D03*
%TD*%
D11*
%TO.C,C17*%
X10432375Y2593625D03*
X10587375Y2593625D03*
%TD*%
D10*
%TO.C,R63*%
X10382875Y3835000D03*
X10382875Y3670000D03*
%TD*%
D14*
%TO.C,R42*%
X3985250Y6540000D03*
X3820250Y6540000D03*
%TD*%
%TO.C,R35*%
X3401000Y5111250D03*
X3236000Y5111250D03*
%TD*%
D10*
%TO.C,R25*%
X2191000Y2692000D03*
X2191000Y2527000D03*
%TD*%
D14*
%TO.C,R61*%
X10703500Y3990625D03*
X10538500Y3990625D03*
%TD*%
D23*
%TO.C,C50*%
X2366000Y9054750D03*
X2366000Y8864750D03*
%TD*%
D33*
%TO.C,C44*%
X2905750Y8261000D03*
X2905750Y7721000D03*
%TD*%
D10*
%TO.C,R18*%
X6272750Y3136250D03*
X6272750Y2971250D03*
%TD*%
%TO.C,R4*%
X5064750Y9169000D03*
X5064750Y9004000D03*
%TD*%
D15*
%TO.C,R62*%
X10538500Y3673125D03*
X10703500Y3673125D03*
%TD*%
D34*
%TO.C,U2*%
X3255000Y5816250D03*
X3382000Y5816250D03*
X3509000Y5816250D03*
X3636000Y5816250D03*
X3763000Y5816250D03*
X3890000Y5816250D03*
X4017000Y5816250D03*
X4017000Y6311250D03*
X3890000Y6311250D03*
X3763000Y6311250D03*
X3636000Y6311250D03*
X3509000Y6311250D03*
X3382000Y6311250D03*
X3255000Y6311250D03*
%TD*%
D20*
%TO.C,C46*%
X969000Y5890250D03*
X429000Y5890250D03*
%TD*%
D14*
%TO.C,R68*%
X12005250Y4003000D03*
X11840250Y4003000D03*
%TD*%
D13*
%TO.C,FB3*%
X1794500Y8064250D03*
X1794500Y8229250D03*
%TD*%
D33*
%TO.C,C39*%
X2905750Y9277000D03*
X2905750Y8737000D03*
%TD*%
D14*
%TO.C,R46*%
X3445500Y6857500D03*
X3280500Y6857500D03*
%TD*%
M02*
