%TF.GenerationSoftware,KiCad,Pcbnew,9.0.2*%
%TF.CreationDate,2025-07-29T11:08:40-07:00*%
%TF.ProjectId,Seed3-DevKit-Eurorack-Rev1,53656564-332d-4446-9576-4b69742d4575,rev?*%
%TF.SameCoordinates,Original*%
%TF.FileFunction,Legend,Bot*%
%TF.FilePolarity,Positive*%
%FSLAX45Y45*%
G04 Gerber Fmt 4.5, Leading zero omitted, Abs format (unit mm)*
G04 Created by KiCad (PCBNEW 9.0.2) date 2025-07-29 11:08:40*
%MOMM*%
%LPD*%
G01*
G04 APERTURE LIST*
G04 Aperture macros list*
%AMRoundRect*
0 Rectangle with rounded corners*
0 $1 Rounding radius*
0 $2 $3 $4 $5 $6 $7 $8 $9 X,Y pos of 4 corners*
0 Add a 4 corners polygon primitive as box body*
4,1,4,$2,$3,$4,$5,$6,$7,$8,$9,$2,$3,0*
0 Add four circle primitives for the rounded corners*
1,1,$1+$1,$2,$3*
1,1,$1+$1,$4,$5*
1,1,$1+$1,$6,$7*
1,1,$1+$1,$8,$9*
0 Add four rect primitives between the rounded corners*
20,1,$1+$1,$2,$3,$4,$5,0*
20,1,$1+$1,$4,$5,$6,$7,0*
20,1,$1+$1,$6,$7,$8,$9,0*
20,1,$1+$1,$8,$9,$2,$3,0*%
%AMFreePoly0*
4,1,25,0.401445,0.907196,0.413568,0.896842,0.896842,0.413568,0.925349,0.357620,0.926600,0.341726,0.926600,-0.341726,0.907196,-0.401445,0.896842,-0.413568,0.413568,-0.896842,0.357620,-0.925349,0.341726,-0.926600,-0.341726,-0.926600,-0.401445,-0.907196,-0.413568,-0.896842,-0.896842,-0.413568,-0.925349,-0.357620,-0.926600,-0.341726,-0.926600,0.341726,-0.907196,0.401445,-0.896842,0.413568,
-0.413568,0.896842,-0.357620,0.925349,-0.341726,0.926600,0.341726,0.926600,0.401445,0.907196,0.401445,0.907196,$1*%
%AMFreePoly1*
4,1,25,0.448997,1.021996,0.461120,1.011642,1.011642,0.461120,1.040149,0.405172,1.041400,0.389278,1.041400,-0.389278,1.021996,-0.448997,1.011642,-0.461120,0.461120,-1.011642,0.405172,-1.040149,0.389278,-1.041400,-0.389278,-1.041400,-0.448997,-1.021996,-0.461120,-1.011642,-1.011642,-0.461120,-1.040149,-0.405172,-1.041400,-0.389278,-1.041400,0.389278,-1.021996,0.448997,-1.011642,0.461120,
-0.461120,1.011642,-0.405172,1.040149,-0.389278,1.041400,0.389278,1.041400,0.448997,1.021996,0.448997,1.021996,$1*%
G04 Aperture macros list end*
%ADD10C,0.300000*%
%ADD11C,0.127000*%
%ADD12C,0.101600*%
%ADD13C,0.152400*%
%ADD14C,5.600000*%
%ADD15RoundRect,0.101600X-0.825000X0.825000X-0.825000X-0.825000X0.825000X-0.825000X0.825000X0.825000X0*%
%ADD16FreePoly0,270.000000*%
%ADD17RoundRect,0.101600X-1.558000X1.558000X-1.558000X-1.558000X1.558000X-1.558000X1.558000X1.558000X0*%
%ADD18C,1.853200*%
%ADD19O,1.625600X3.048000*%
%ADD20C,2.082800*%
%ADD21R,1.800000X1.800000*%
%ADD22C,1.800000*%
%ADD23R,1.700000X1.700000*%
%ADD24C,1.700000*%
%ADD25C,0.650000*%
%ADD26RoundRect,0.250000X-0.550000X0.550000X-0.550000X-0.550000X0.550000X-0.550000X0.550000X0.550000X0*%
%ADD27C,1.600000*%
%ADD28C,0.999997*%
%ADD29FreePoly1,90.000000*%
G04 APERTURE END LIST*
D10*
X11083085Y10630417D02*
X11133085Y10701846D01*
X11168799Y10630417D02*
X11168799Y10780417D01*
X11168799Y10780417D02*
X11111656Y10780417D01*
X11111656Y10780417D02*
X11097370Y10773274D01*
X11097370Y10773274D02*
X11090227Y10766132D01*
X11090227Y10766132D02*
X11083085Y10751846D01*
X11083085Y10751846D02*
X11083085Y10730417D01*
X11083085Y10730417D02*
X11090227Y10716132D01*
X11090227Y10716132D02*
X11097370Y10708989D01*
X11097370Y10708989D02*
X11111656Y10701846D01*
X11111656Y10701846D02*
X11168799Y10701846D01*
X10961656Y10637560D02*
X10975942Y10630417D01*
X10975942Y10630417D02*
X11004513Y10630417D01*
X11004513Y10630417D02*
X11018799Y10637560D01*
X11018799Y10637560D02*
X11025942Y10651846D01*
X11025942Y10651846D02*
X11025942Y10708989D01*
X11025942Y10708989D02*
X11018799Y10723274D01*
X11018799Y10723274D02*
X11004513Y10730417D01*
X11004513Y10730417D02*
X10975942Y10730417D01*
X10975942Y10730417D02*
X10961656Y10723274D01*
X10961656Y10723274D02*
X10954513Y10708989D01*
X10954513Y10708989D02*
X10954513Y10694703D01*
X10954513Y10694703D02*
X11025942Y10680417D01*
X10904513Y10730417D02*
X10868799Y10630417D01*
X10868799Y10630417D02*
X10833085Y10730417D01*
X10697370Y10630417D02*
X10783085Y10630417D01*
X10740228Y10630417D02*
X10740228Y10780417D01*
X10740228Y10780417D02*
X10754513Y10758989D01*
X10754513Y10758989D02*
X10768799Y10744703D01*
X10768799Y10744703D02*
X10783085Y10737560D01*
D11*
%TO.C,VR7*%
X11067750Y7870000D02*
G75*
G02*
X10607750Y7870000I-230000J0D01*
G01*
X10607750Y7870000D02*
G75*
G02*
X11067750Y7870000I230000J0D01*
G01*
X11217750Y7170000D02*
G75*
G02*
X10857750Y7170000I-180000J0D01*
G01*
X10857750Y7170000D02*
G75*
G02*
X11217750Y7170000I180000J0D01*
G01*
X11467750Y7170000D02*
G75*
G02*
X11107750Y7170000I-180000J0D01*
G01*
X11107750Y7170000D02*
G75*
G02*
X11467750Y7170000I180000J0D01*
G01*
X11717750Y7170000D02*
G75*
G02*
X11357750Y7170000I-180000J0D01*
G01*
X11357750Y7170000D02*
G75*
G02*
X11717750Y7170000I180000J0D01*
G01*
X11967750Y7870000D02*
G75*
G02*
X11507750Y7870000I-230000J0D01*
G01*
X11507750Y7870000D02*
G75*
G02*
X11967750Y7870000I230000J0D01*
G01*
%TO.C,VR3*%
X11067750Y9658000D02*
G75*
G02*
X10607750Y9658000I-230000J0D01*
G01*
X10607750Y9658000D02*
G75*
G02*
X11067750Y9658000I230000J0D01*
G01*
X11217750Y8958000D02*
G75*
G02*
X10857750Y8958000I-180000J0D01*
G01*
X10857750Y8958000D02*
G75*
G02*
X11217750Y8958000I180000J0D01*
G01*
X11467750Y8958000D02*
G75*
G02*
X11107750Y8958000I-180000J0D01*
G01*
X11107750Y8958000D02*
G75*
G02*
X11467750Y8958000I180000J0D01*
G01*
X11717750Y8958000D02*
G75*
G02*
X11357750Y8958000I-180000J0D01*
G01*
X11357750Y8958000D02*
G75*
G02*
X11717750Y8958000I180000J0D01*
G01*
X11967750Y9658000D02*
G75*
G02*
X11507750Y9658000I-230000J0D01*
G01*
X11507750Y9658000D02*
G75*
G02*
X11967750Y9658000I230000J0D01*
G01*
%TO.C,VR5*%
X7575250Y7860000D02*
G75*
G02*
X7115250Y7860000I-230000J0D01*
G01*
X7115250Y7860000D02*
G75*
G02*
X7575250Y7860000I230000J0D01*
G01*
X7725250Y7160000D02*
G75*
G02*
X7365250Y7160000I-180000J0D01*
G01*
X7365250Y7160000D02*
G75*
G02*
X7725250Y7160000I180000J0D01*
G01*
X7975250Y7160000D02*
G75*
G02*
X7615250Y7160000I-180000J0D01*
G01*
X7615250Y7160000D02*
G75*
G02*
X7975250Y7160000I180000J0D01*
G01*
X8225250Y7160000D02*
G75*
G02*
X7865250Y7160000I-180000J0D01*
G01*
X7865250Y7160000D02*
G75*
G02*
X8225250Y7160000I180000J0D01*
G01*
X8475250Y7860000D02*
G75*
G02*
X8015250Y7860000I-230000J0D01*
G01*
X8015250Y7860000D02*
G75*
G02*
X8475250Y7860000I230000J0D01*
G01*
D12*
%TO.C,SW2*%
X7795250Y720000D02*
G75*
G02*
X7287250Y720000I-254000J0D01*
G01*
X7287250Y720000D02*
G75*
G02*
X7795250Y720000I254000J0D01*
G01*
X8049250Y720000D02*
G75*
G02*
X7541250Y720000I-254000J0D01*
G01*
X7541250Y720000D02*
G75*
G02*
X8049250Y720000I254000J0D01*
G01*
X8303250Y720000D02*
G75*
G02*
X7795250Y720000I-254000J0D01*
G01*
X7795250Y720000D02*
G75*
G02*
X8303250Y720000I254000J0D01*
G01*
%TO.C,SW3*%
X2407180Y966120D02*
G75*
G02*
X2055580Y966120I-175800J0D01*
G01*
X2055580Y966120D02*
G75*
G02*
X2407180Y966120I175800J0D01*
G01*
X2407180Y514000D02*
G75*
G02*
X2055580Y514000I-175800J0D01*
G01*
X2055580Y514000D02*
G75*
G02*
X2407180Y514000I175800J0D01*
G01*
X3057420Y966120D02*
G75*
G02*
X2705820Y966120I-175800J0D01*
G01*
X2705820Y966120D02*
G75*
G02*
X3057420Y966120I175800J0D01*
G01*
X3057420Y514000D02*
G75*
G02*
X2705820Y514000I-175800J0D01*
G01*
X2705820Y514000D02*
G75*
G02*
X3057420Y514000I175800J0D01*
G01*
D11*
%TO.C,VR1*%
X7575250Y9658000D02*
G75*
G02*
X7115250Y9658000I-230000J0D01*
G01*
X7115250Y9658000D02*
G75*
G02*
X7575250Y9658000I230000J0D01*
G01*
X7725250Y8958000D02*
G75*
G02*
X7365250Y8958000I-180000J0D01*
G01*
X7365250Y8958000D02*
G75*
G02*
X7725250Y8958000I180000J0D01*
G01*
X7975250Y8958000D02*
G75*
G02*
X7615250Y8958000I-180000J0D01*
G01*
X7615250Y8958000D02*
G75*
G02*
X7975250Y8958000I180000J0D01*
G01*
X8225250Y8958000D02*
G75*
G02*
X7865250Y8958000I-180000J0D01*
G01*
X7865250Y8958000D02*
G75*
G02*
X8225250Y8958000I180000J0D01*
G01*
X8475250Y9658000D02*
G75*
G02*
X8015250Y9658000I-230000J0D01*
G01*
X8015250Y9658000D02*
G75*
G02*
X8475250Y9658000I230000J0D01*
G01*
%TO.C,J_MIDI_THRU1*%
X6229000Y8342000D02*
G75*
G02*
X5869000Y8342000I-180000J0D01*
G01*
X5869000Y8342000D02*
G75*
G02*
X6229000Y8342000I180000J0D01*
G01*
X6229000Y7492000D02*
G75*
G02*
X5869000Y7492000I-180000J0D01*
G01*
X5869000Y7492000D02*
G75*
G02*
X6229000Y7492000I180000J0D01*
G01*
X6229000Y7192000D02*
G75*
G02*
X5869000Y7192000I-180000J0D01*
G01*
X5869000Y7192000D02*
G75*
G02*
X6229000Y7192000I180000J0D01*
G01*
%TO.C,J_MIDI_OUT1*%
X6229000Y6483000D02*
G75*
G02*
X5869000Y6483000I-180000J0D01*
G01*
X5869000Y6483000D02*
G75*
G02*
X6229000Y6483000I180000J0D01*
G01*
X6229000Y5633000D02*
G75*
G02*
X5869000Y5633000I-180000J0D01*
G01*
X5869000Y5633000D02*
G75*
G02*
X6229000Y5633000I180000J0D01*
G01*
X6229000Y5333000D02*
G75*
G02*
X5869000Y5333000I-180000J0D01*
G01*
X5869000Y5333000D02*
G75*
G02*
X6229000Y5333000I180000J0D01*
G01*
%TO.C,VR4*%
X12814000Y9656095D02*
G75*
G02*
X12354000Y9656095I-230000J0D01*
G01*
X12354000Y9656095D02*
G75*
G02*
X12814000Y9656095I230000J0D01*
G01*
X12964000Y8956095D02*
G75*
G02*
X12604000Y8956095I-180000J0D01*
G01*
X12604000Y8956095D02*
G75*
G02*
X12964000Y8956095I180000J0D01*
G01*
X13214000Y8956095D02*
G75*
G02*
X12854000Y8956095I-180000J0D01*
G01*
X12854000Y8956095D02*
G75*
G02*
X13214000Y8956095I180000J0D01*
G01*
X13464000Y8956095D02*
G75*
G02*
X13104000Y8956095I-180000J0D01*
G01*
X13104000Y8956095D02*
G75*
G02*
X13464000Y8956095I180000J0D01*
G01*
X13714000Y9656095D02*
G75*
G02*
X13254000Y9656095I-230000J0D01*
G01*
X13254000Y9656095D02*
G75*
G02*
X13714000Y9656095I230000J0D01*
G01*
D12*
%TO.C,SW4*%
X4153430Y970000D02*
G75*
G02*
X3801830Y970000I-175800J0D01*
G01*
X3801830Y970000D02*
G75*
G02*
X4153430Y970000I175800J0D01*
G01*
X4153430Y517880D02*
G75*
G02*
X3801830Y517880I-175800J0D01*
G01*
X3801830Y517880D02*
G75*
G02*
X4153430Y517880I175800J0D01*
G01*
X4803670Y970000D02*
G75*
G02*
X4452070Y970000I-175800J0D01*
G01*
X4452070Y970000D02*
G75*
G02*
X4803670Y970000I175800J0D01*
G01*
X4803670Y517880D02*
G75*
G02*
X4452070Y517880I-175800J0D01*
G01*
X4452070Y517880D02*
G75*
G02*
X4803670Y517880I175800J0D01*
G01*
D11*
%TO.C,VR6*%
X9321500Y7880000D02*
G75*
G02*
X8861500Y7880000I-230000J0D01*
G01*
X8861500Y7880000D02*
G75*
G02*
X9321500Y7880000I230000J0D01*
G01*
X9471500Y7180000D02*
G75*
G02*
X9111500Y7180000I-180000J0D01*
G01*
X9111500Y7180000D02*
G75*
G02*
X9471500Y7180000I180000J0D01*
G01*
X9721500Y7180000D02*
G75*
G02*
X9361500Y7180000I-180000J0D01*
G01*
X9361500Y7180000D02*
G75*
G02*
X9721500Y7180000I180000J0D01*
G01*
X9971500Y7180000D02*
G75*
G02*
X9611500Y7180000I-180000J0D01*
G01*
X9611500Y7180000D02*
G75*
G02*
X9971500Y7180000I180000J0D01*
G01*
X10221500Y7880000D02*
G75*
G02*
X9761500Y7880000I-230000J0D01*
G01*
X9761500Y7880000D02*
G75*
G02*
X10221500Y7880000I230000J0D01*
G01*
%TO.C,J_MIDI_IN1*%
X6229000Y10158000D02*
G75*
G02*
X5869000Y10158000I-180000J0D01*
G01*
X5869000Y10158000D02*
G75*
G02*
X6229000Y10158000I180000J0D01*
G01*
X6229000Y9308000D02*
G75*
G02*
X5869000Y9308000I-180000J0D01*
G01*
X5869000Y9308000D02*
G75*
G02*
X6229000Y9308000I180000J0D01*
G01*
X6229000Y9008000D02*
G75*
G02*
X5869000Y9008000I-180000J0D01*
G01*
X5869000Y9008000D02*
G75*
G02*
X6229000Y9008000I180000J0D01*
G01*
D13*
%TO.C,SW1*%
X6078981Y720000D02*
G75*
G02*
X5511019Y720000I-283981J0D01*
G01*
X5511019Y720000D02*
G75*
G02*
X6078981Y720000I283981J0D01*
G01*
X6332981Y720000D02*
G75*
G02*
X5765019Y720000I-283981J0D01*
G01*
X5765019Y720000D02*
G75*
G02*
X6332981Y720000I283981J0D01*
G01*
X6582688Y720000D02*
G75*
G02*
X6023312Y720000I-279688J0D01*
G01*
X6023312Y720000D02*
G75*
G02*
X6582688Y720000I279688J0D01*
G01*
D11*
%TO.C,VR8*%
X12814000Y7870000D02*
G75*
G02*
X12354000Y7870000I-230000J0D01*
G01*
X12354000Y7870000D02*
G75*
G02*
X12814000Y7870000I230000J0D01*
G01*
X12964000Y7170000D02*
G75*
G02*
X12604000Y7170000I-180000J0D01*
G01*
X12604000Y7170000D02*
G75*
G02*
X12964000Y7170000I180000J0D01*
G01*
X13214000Y7170000D02*
G75*
G02*
X12854000Y7170000I-180000J0D01*
G01*
X12854000Y7170000D02*
G75*
G02*
X13214000Y7170000I180000J0D01*
G01*
X13464000Y7170000D02*
G75*
G02*
X13104000Y7170000I-180000J0D01*
G01*
X13104000Y7170000D02*
G75*
G02*
X13464000Y7170000I180000J0D01*
G01*
X13714000Y7870000D02*
G75*
G02*
X13254000Y7870000I-230000J0D01*
G01*
X13254000Y7870000D02*
G75*
G02*
X13714000Y7870000I230000J0D01*
G01*
%TO.C,VR2*%
X9321500Y9658000D02*
G75*
G02*
X8861500Y9658000I-230000J0D01*
G01*
X8861500Y9658000D02*
G75*
G02*
X9321500Y9658000I230000J0D01*
G01*
X9471500Y8958000D02*
G75*
G02*
X9111500Y8958000I-180000J0D01*
G01*
X9111500Y8958000D02*
G75*
G02*
X9471500Y8958000I180000J0D01*
G01*
X9721500Y8958000D02*
G75*
G02*
X9361500Y8958000I-180000J0D01*
G01*
X9361500Y8958000D02*
G75*
G02*
X9721500Y8958000I180000J0D01*
G01*
X9971500Y8958000D02*
G75*
G02*
X9611500Y8958000I-180000J0D01*
G01*
X9611500Y8958000D02*
G75*
G02*
X9971500Y8958000I180000J0D01*
G01*
X10221500Y9658000D02*
G75*
G02*
X9761500Y9658000I-230000J0D01*
G01*
X9761500Y9658000D02*
G75*
G02*
X10221500Y9658000I230000J0D01*
G01*
%TD*%
%LPC*%
D14*
%TO.C,H1*%
X750000Y10800000D03*
%TD*%
D15*
%TO.C,VR7*%
X11037750Y7170000D03*
D16*
X11287750Y7170000D03*
X11537750Y7170000D03*
D17*
X10837750Y7870000D03*
X11737750Y7870000D03*
%TD*%
D18*
%TO.C,J_AUDIO_IN_R1*%
X9541500Y1388000D03*
X9541500Y1688000D03*
X9541500Y2538000D03*
%TD*%
D15*
%TO.C,VR3*%
X11037750Y8958000D03*
D16*
X11287750Y8958000D03*
X11537750Y8958000D03*
D17*
X10837750Y9658000D03*
X11737750Y9658000D03*
%TD*%
D15*
%TO.C,VR5*%
X7545250Y7160000D03*
D16*
X7795250Y7160000D03*
X8045250Y7160000D03*
D17*
X7345250Y7860000D03*
X8245250Y7860000D03*
%TD*%
D19*
%TO.C,SW2*%
X7541250Y720000D03*
X7795250Y720000D03*
X8049250Y720000D03*
%TD*%
D20*
%TO.C,SW3*%
X2231380Y966120D03*
X2881620Y966120D03*
X2231380Y514000D03*
X2881620Y514000D03*
%TD*%
D15*
%TO.C,VR1*%
X7545250Y8958000D03*
D16*
X7795250Y8958000D03*
X8045250Y8958000D03*
D17*
X7345250Y9658000D03*
X8245250Y9658000D03*
%TD*%
D18*
%TO.C,J_MIDI_THRU1*%
X6049000Y7192000D03*
X6049000Y7492000D03*
X6049000Y8342000D03*
%TD*%
%TO.C,J_CV_OUT_1*%
X6049000Y3420000D03*
X6049000Y3720000D03*
X6049000Y4570000D03*
%TD*%
%TO.C,J_MIDI_OUT1*%
X6049000Y5333000D03*
X6049000Y5633000D03*
X6049000Y6483000D03*
%TD*%
D21*
%TO.C,LED2*%
X4302750Y2120000D03*
D22*
X4302750Y1866000D03*
%TD*%
D23*
%TO.C,A1*%
X279500Y2970500D03*
D24*
X533500Y2970500D03*
X787500Y2970500D03*
X1041500Y2970500D03*
X1295500Y2970500D03*
X1549500Y2970500D03*
X1803500Y2970500D03*
X2057500Y2970500D03*
X2311500Y2970500D03*
X2565500Y2970500D03*
X2819500Y2970500D03*
X3073500Y2970500D03*
X3327500Y2970500D03*
X3581500Y2970500D03*
X3835500Y2970500D03*
X4089500Y2970500D03*
X4343500Y2970500D03*
X4597500Y2970500D03*
X4851500Y2970500D03*
X5105500Y2970500D03*
X5105500Y4494500D03*
X4851500Y4494500D03*
X4597500Y4494500D03*
X4343500Y4494500D03*
X4089500Y4494500D03*
X3835500Y4494500D03*
X3581500Y4494500D03*
X3327500Y4494500D03*
X3073500Y4494500D03*
X2819500Y4494500D03*
X2565500Y4494500D03*
X2311500Y4494500D03*
X2057500Y4494500D03*
X1803500Y4494500D03*
X1549500Y4494500D03*
X1295500Y4494500D03*
X1041500Y4494500D03*
X787500Y4494500D03*
X533500Y4494500D03*
X279500Y4494500D03*
%TD*%
D18*
%TO.C,J_CV_OUT_2*%
X7795250Y3420000D03*
X7795250Y3720000D03*
X7795250Y4570000D03*
%TD*%
D15*
%TO.C,VR4*%
X12784000Y8956095D03*
D16*
X13034000Y8956095D03*
X13284000Y8956095D03*
D17*
X12584000Y9656095D03*
X13484000Y9656095D03*
%TD*%
D18*
%TO.C,J_AUDIO_IN_L1*%
X9541500Y3412000D03*
X9541500Y3712000D03*
X9541500Y4562000D03*
%TD*%
%TO.C,J_GATE_IN_1*%
X6049000Y1388000D03*
X6049000Y1688000D03*
X6049000Y2538000D03*
%TD*%
%TO.C,J_CV_IN_1*%
X7795250Y5333000D03*
X7795250Y5633000D03*
X7795250Y6483000D03*
%TD*%
D20*
%TO.C,SW4*%
X3977630Y970000D03*
X4627870Y970000D03*
X3977630Y517880D03*
X4627870Y517880D03*
%TD*%
D25*
%TO.C,J7*%
X600000Y7280000D03*
X600000Y6702000D03*
%TD*%
D14*
%TO.C,H2*%
X750000Y300000D03*
%TD*%
D15*
%TO.C,VR6*%
X9291500Y7180000D03*
D16*
X9541500Y7180000D03*
X9791500Y7180000D03*
D17*
X9091500Y7880000D03*
X9991500Y7880000D03*
%TD*%
D18*
%TO.C,J_MIDI_IN1*%
X6049000Y9008000D03*
X6049000Y9308000D03*
X6049000Y10158000D03*
%TD*%
%TO.C,J_CV_IN_2*%
X9541500Y5333000D03*
X9541500Y5633000D03*
X9541500Y6483000D03*
%TD*%
D19*
%TO.C,SW1*%
X5795000Y720000D03*
X6049000Y720000D03*
X6303000Y720000D03*
%TD*%
D21*
%TO.C,LED1*%
X2556500Y2300000D03*
D22*
X2556500Y2084100D03*
X2556500Y1868200D03*
X2556500Y1652300D03*
%TD*%
D14*
%TO.C,H3*%
X13440000Y10800000D03*
%TD*%
D18*
%TO.C,J_CV_IN_3*%
X11287750Y5333000D03*
X11287750Y5633000D03*
X11287750Y6483000D03*
%TD*%
D15*
%TO.C,VR8*%
X12784000Y7170000D03*
D16*
X13034000Y7170000D03*
X13284000Y7170000D03*
D17*
X12584000Y7870000D03*
X13484000Y7870000D03*
%TD*%
D26*
%TO.C,U11*%
X4779000Y9022500D03*
D27*
X4525000Y9022500D03*
X4271000Y9022500D03*
X4271000Y8260500D03*
X4525000Y8260500D03*
X4779000Y8260500D03*
%TD*%
D28*
%TO.C,U7*%
X474440Y2330380D03*
X474440Y1532820D03*
%TD*%
D29*
%TO.C,P1*%
X1121400Y8388000D03*
X1375400Y8388000D03*
X1096000Y8642000D03*
X1350000Y8642000D03*
X1121400Y8896000D03*
X1375400Y8896000D03*
X1096000Y8134000D03*
X1350000Y8134000D03*
X1096000Y9150000D03*
X1350000Y9150000D03*
%TD*%
D18*
%TO.C,J_GATE_IN_2*%
X7795250Y1396000D03*
X7795250Y1696000D03*
X7795250Y2546000D03*
%TD*%
%TO.C,J_CV_IN_4*%
X13034000Y5341000D03*
X13034000Y5641000D03*
X13034000Y6491000D03*
%TD*%
%TO.C,J_AUDIO_OUT_L1*%
X13034000Y3420000D03*
X13034000Y3720000D03*
X13034000Y4570000D03*
%TD*%
D15*
%TO.C,VR2*%
X9291500Y8958000D03*
D16*
X9541500Y8958000D03*
X9791500Y8958000D03*
D17*
X9091500Y9658000D03*
X9991500Y9658000D03*
%TD*%
D14*
%TO.C,H4*%
X13440000Y300000D03*
%TD*%
D18*
%TO.C,J_AUDIO_OUT_R1*%
X13034000Y1269000D03*
X13034000Y1569000D03*
X13034000Y2419000D03*
%TD*%
%LPD*%
M02*
