%TF.GenerationSoftware,KiCad,Pcbnew,10.0.1*%
%TF.CreationDate,2026-06-16T09:43:19-07:00*%
%TF.ProjectId,Seed3-DevKit-Eurorack-Rev3,53656564-332d-4446-9576-4b69742d4575,rev?*%
%TF.SameCoordinates,Original*%
%TF.FileFunction,Paste,Top*%
%TF.FilePolarity,Positive*%
%FSLAX45Y45*%
G04 Gerber Fmt 4.5, Leading zero omitted, Abs format (unit mm)*
G04 Created by KiCad (PCBNEW 10.0.1) date 2026-06-16 09:43:19*
%MOMM*%
%LPD*%
G01*
G04 APERTURE LIST*
G04 Aperture macros list*
%AMRoundRect*
0 Rectangle with rounded corners*
0 $1 Rounding radius*
0 $2 $3 $4 $5 $6 $7 $8 $9 X,Y pos of 4 corners*
0 Add a 4 corners polygon primitive as box body*
4,1,4,$2,$3,$4,$5,$6,$7,$8,$9,$2,$3,0*
0 Add four circle primitives for the rounded corners*
1,1,$1+$1,$2,$3*
1,1,$1+$1,$4,$5*
1,1,$1+$1,$6,$7*
1,1,$1+$1,$8,$9*
0 Add four rect primitives between the rounded corners*
20,1,$1+$1,$2,$3,$4,$5,0*
20,1,$1+$1,$4,$5,$6,$7,0*
20,1,$1+$1,$6,$7,$8,$9,0*
20,1,$1+$1,$8,$9,$2,$3,0*%
G04 Aperture macros list end*
%ADD10RoundRect,0.200000X-0.275000X0.200000X-0.275000X-0.200000X0.275000X-0.200000X0.275000X0.200000X0*%
%ADD11RoundRect,0.225000X0.225000X0.250000X-0.225000X0.250000X-0.225000X-0.250000X0.225000X-0.250000X0*%
%ADD12RoundRect,0.225000X-0.250000X0.225000X-0.250000X-0.225000X0.250000X-0.225000X0.250000X0.225000X0*%
%ADD13RoundRect,0.200000X0.275000X-0.200000X0.275000X0.200000X-0.275000X0.200000X-0.275000X-0.200000X0*%
%ADD14RoundRect,0.200000X0.200000X0.275000X-0.200000X0.275000X-0.200000X-0.275000X0.200000X-0.275000X0*%
%ADD15RoundRect,0.200000X-0.200000X-0.275000X0.200000X-0.275000X0.200000X0.275000X-0.200000X0.275000X0*%
%ADD16RoundRect,0.225000X-0.225000X-0.250000X0.225000X-0.250000X0.225000X0.250000X-0.225000X0.250000X0*%
%ADD17RoundRect,0.150000X0.587500X0.150000X-0.587500X0.150000X-0.587500X-0.150000X0.587500X-0.150000X0*%
%ADD18RoundRect,0.150000X0.825000X0.150000X-0.825000X0.150000X-0.825000X-0.150000X0.825000X-0.150000X0*%
%ADD19RoundRect,0.112500X-0.112500X0.187500X-0.112500X-0.187500X0.112500X-0.187500X0.112500X0.187500X0*%
%ADD20RoundRect,0.250000X-0.625000X0.312500X-0.625000X-0.312500X0.625000X-0.312500X0.625000X0.312500X0*%
%ADD21RoundRect,0.250000X1.500000X0.550000X-1.500000X0.550000X-1.500000X-0.550000X1.500000X-0.550000X0*%
%ADD22RoundRect,0.225000X0.250000X-0.225000X0.250000X0.225000X-0.250000X0.225000X-0.250000X-0.225000X0*%
%ADD23RoundRect,0.150000X0.150000X-0.725000X0.150000X0.725000X-0.150000X0.725000X-0.150000X-0.725000X0*%
%ADD24RoundRect,0.250000X-0.475000X0.250000X-0.475000X-0.250000X0.475000X-0.250000X0.475000X0.250000X0*%
%ADD25R,1.150000X0.600000*%
%ADD26R,1.150000X0.300000*%
%ADD27R,2.000000X2.180000*%
%ADD28RoundRect,0.150000X-0.512500X-0.150000X0.512500X-0.150000X0.512500X0.150000X-0.512500X0.150000X0*%
%ADD29R,1.300000X0.700000*%
%ADD30R,1.651000X1.447800*%
%ADD31R,2.438400X1.447800*%
%ADD32R,1.651000X1.854200*%
%ADD33RoundRect,0.112500X0.112500X-0.187500X0.112500X0.187500X-0.112500X0.187500X-0.112500X-0.187500X0*%
%ADD34RoundRect,0.250000X-0.550000X1.500000X-0.550000X-1.500000X0.550000X-1.500000X0.550000X1.500000X0*%
%ADD35RoundRect,0.150000X0.150000X-0.825000X0.150000X0.825000X-0.150000X0.825000X-0.150000X-0.825000X0*%
G04 APERTURE END LIST*
D10*
%TO.C,R24*%
X9890750Y4011500D03*
X9890750Y3846500D03*
%TD*%
%TO.C,FB2*%
X1794500Y9948750D03*
X1794500Y9783750D03*
%TD*%
D11*
%TO.C,C47*%
X5757500Y10700000D03*
X5602500Y10700000D03*
%TD*%
D12*
%TO.C,C6*%
X4652000Y6308375D03*
X4652000Y6153375D03*
%TD*%
D13*
%TO.C,R50*%
X775000Y4110000D03*
X775000Y4275000D03*
%TD*%
D14*
%TO.C,R45*%
X3445500Y7891250D03*
X3280500Y7891250D03*
%TD*%
D15*
%TO.C,R2*%
X1167510Y7555000D03*
X1332510Y7555000D03*
%TD*%
%TO.C,R31*%
X9109750Y4087750D03*
X9274750Y4087750D03*
%TD*%
D14*
%TO.C,R67*%
X12175500Y452750D03*
X12010500Y452750D03*
%TD*%
D15*
%TO.C,R49*%
X6207187Y4471188D03*
X6372187Y4471188D03*
%TD*%
D12*
%TO.C,C33*%
X2175500Y9100500D03*
X2175500Y8945500D03*
%TD*%
D16*
%TO.C,C14*%
X3241000Y6303750D03*
X3396000Y6303750D03*
%TD*%
D15*
%TO.C,R73*%
X12010500Y770250D03*
X12175500Y770250D03*
%TD*%
D13*
%TO.C,R51*%
X525000Y4110000D03*
X525000Y4275000D03*
%TD*%
D17*
%TO.C,Q2*%
X9540000Y3834000D03*
X9540000Y4024000D03*
X9352500Y3929000D03*
%TD*%
D15*
%TO.C,R57*%
X6334187Y5423688D03*
X6499187Y5423688D03*
%TD*%
D16*
%TO.C,C4*%
X10872500Y1869125D03*
X11027500Y1869125D03*
%TD*%
D18*
%TO.C,U12*%
X5128250Y6469000D03*
X5128250Y6596000D03*
X5128250Y6723000D03*
X5128250Y6850000D03*
X5128250Y6977000D03*
X5128250Y7104000D03*
X5128250Y7231000D03*
X5128250Y7358000D03*
X4633250Y7358000D03*
X4633250Y7231000D03*
X4633250Y7104000D03*
X4633250Y6977000D03*
X4633250Y6850000D03*
X4633250Y6723000D03*
X4633250Y6596000D03*
X4633250Y6469000D03*
%TD*%
D14*
%TO.C,R10*%
X5814000Y8110000D03*
X5649000Y8110000D03*
%TD*%
D10*
%TO.C,R80*%
X11997750Y1882500D03*
X11997750Y1717500D03*
%TD*%
%TO.C,R44*%
X3705000Y3572500D03*
X3705000Y3407500D03*
%TD*%
D19*
%TO.C,D2*%
X1985000Y9136000D03*
X1985000Y8926000D03*
%TD*%
D20*
%TO.C,R9*%
X1357500Y6297750D03*
X1357500Y6005250D03*
%TD*%
D14*
%TO.C,R38*%
X4036000Y6462500D03*
X3871000Y6462500D03*
%TD*%
D13*
%TO.C,R52*%
X1550000Y4110000D03*
X1550000Y4275000D03*
%TD*%
D21*
%TO.C,C49*%
X969000Y6024500D03*
X429000Y6024500D03*
%TD*%
D10*
%TO.C,R17*%
X8177750Y4011250D03*
X8177750Y3846250D03*
%TD*%
%TO.C,R43*%
X5510000Y3192500D03*
X5510000Y3027500D03*
%TD*%
D15*
%TO.C,R23*%
X7396750Y4087500D03*
X7561750Y4087500D03*
%TD*%
%TO.C,R47*%
X3280500Y7415000D03*
X3445500Y7415000D03*
%TD*%
D10*
%TO.C,R60*%
X6162687Y5601437D03*
X6162687Y5436438D03*
%TD*%
D15*
%TO.C,R65*%
X10756375Y789625D03*
X10921375Y789625D03*
%TD*%
D14*
%TO.C,R32*%
X3561250Y8596500D03*
X3396250Y8596500D03*
%TD*%
D10*
%TO.C,R66*%
X10600750Y792750D03*
X10600750Y627750D03*
%TD*%
D13*
%TO.C,R54*%
X1050000Y4110000D03*
X1050000Y4275000D03*
%TD*%
D16*
%TO.C,C1*%
X4574500Y8913750D03*
X4729500Y8913750D03*
%TD*%
D20*
%TO.C,R5*%
X1357500Y7059750D03*
X1357500Y6767250D03*
%TD*%
D15*
%TO.C,R1*%
X1167510Y8105000D03*
X1332510Y8105000D03*
%TD*%
D10*
%TO.C,R79*%
X11870750Y1106750D03*
X11870750Y941750D03*
%TD*%
D14*
%TO.C,R64*%
X10921375Y472125D03*
X10756375Y472125D03*
%TD*%
D15*
%TO.C,R36*%
X3871000Y5986250D03*
X4036000Y5986250D03*
%TD*%
D10*
%TO.C,R29*%
X5350000Y9312500D03*
X5350000Y9147500D03*
%TD*%
D12*
%TO.C,C19*%
X3636000Y6476500D03*
X3636000Y6321500D03*
%TD*%
D22*
%TO.C,C3*%
X12632750Y1010250D03*
X12632750Y1165250D03*
%TD*%
D23*
%TO.C,U13*%
X6226187Y4689938D03*
X6353187Y4689938D03*
X6480187Y4689938D03*
X6607187Y4689938D03*
X6607187Y5204938D03*
X6480187Y5204938D03*
X6353187Y5204938D03*
X6226187Y5204938D03*
%TD*%
D15*
%TO.C,R3*%
X4236125Y8913750D03*
X4401125Y8913750D03*
%TD*%
%TO.C,R37*%
X3871000Y6145000D03*
X4036000Y6145000D03*
%TD*%
D13*
%TO.C,R53*%
X1300000Y4110000D03*
X1300000Y4275000D03*
%TD*%
D15*
%TO.C,R34*%
X3236000Y6462500D03*
X3401000Y6462500D03*
%TD*%
D14*
%TO.C,R56*%
X6499187Y5582438D03*
X6334187Y5582438D03*
%TD*%
D15*
%TO.C,R41*%
X3820250Y7732500D03*
X3985250Y7732500D03*
%TD*%
%TO.C,R78*%
X12169250Y1722750D03*
X12334250Y1722750D03*
%TD*%
D14*
%TO.C,R33*%
X3401000Y6145000D03*
X3236000Y6145000D03*
%TD*%
D15*
%TO.C,R39*%
X3820250Y7891250D03*
X3985250Y7891250D03*
%TD*%
D24*
%TO.C,C51*%
X2366000Y9136000D03*
X2366000Y8946000D03*
%TD*%
D10*
%TO.C,R28*%
X9732000Y4011500D03*
X9732000Y3846500D03*
%TD*%
D25*
%TO.C,J7*%
X707500Y8186000D03*
X707500Y8106000D03*
D26*
X707500Y7991000D03*
X707500Y7891000D03*
X707500Y7841000D03*
X707500Y7741000D03*
D25*
X707500Y7546000D03*
X707500Y7626000D03*
D26*
X707500Y7691000D03*
X707500Y7791000D03*
X707500Y7941000D03*
X707500Y8041000D03*
D27*
X650000Y8377000D03*
X650000Y7355000D03*
X257000Y8377000D03*
X257000Y7355000D03*
%TD*%
D28*
%TO.C,U14*%
X1281260Y7925000D03*
X1281260Y7830000D03*
X1281260Y7735000D03*
X1508760Y7735000D03*
X1508760Y7830000D03*
X1508760Y7925000D03*
%TD*%
D13*
%TO.C,R6*%
X5159500Y9147500D03*
X5159500Y9312500D03*
%TD*%
D16*
%TO.C,C22*%
X12174250Y1881500D03*
X12329250Y1881500D03*
%TD*%
D23*
%TO.C,U15*%
X12061250Y989000D03*
X12188250Y989000D03*
X12315250Y989000D03*
X12442250Y989000D03*
X12442250Y1504000D03*
X12315250Y1504000D03*
X12188250Y1504000D03*
X12061250Y1504000D03*
%TD*%
D14*
%TO.C,R19*%
X7561750Y3770000D03*
X7396750Y3770000D03*
%TD*%
D17*
%TO.C,U3*%
X3382000Y8215750D03*
X3382000Y8405750D03*
X3194500Y8310750D03*
%TD*%
D11*
%TO.C,C16*%
X3980250Y7573750D03*
X3825250Y7573750D03*
%TD*%
D23*
%TO.C,U1*%
X10759500Y992500D03*
X10886500Y992500D03*
X11013500Y992500D03*
X11140500Y992500D03*
X11140500Y1507500D03*
X11013500Y1507500D03*
X10886500Y1507500D03*
X10759500Y1507500D03*
%TD*%
D22*
%TO.C,C5*%
X11331000Y1045500D03*
X11331000Y1200500D03*
%TD*%
D17*
%TO.C,Q1*%
X7827000Y3833750D03*
X7827000Y4023750D03*
X7639500Y3928750D03*
%TD*%
D14*
%TO.C,R30*%
X9274750Y3770250D03*
X9109750Y3770250D03*
%TD*%
D12*
%TO.C,C2*%
X2175500Y9929750D03*
X2175500Y9774750D03*
%TD*%
D15*
%TO.C,R59*%
X5649000Y7951250D03*
X5814000Y7951250D03*
%TD*%
D10*
%TO.C,R55*%
X6035687Y4712438D03*
X6035687Y4547438D03*
%TD*%
D16*
%TO.C,C21*%
X12015500Y611500D03*
X12170500Y611500D03*
%TD*%
D14*
%TO.C,R48*%
X6372187Y4312438D03*
X6207187Y4312438D03*
%TD*%
D11*
%TO.C,C15*%
X4031000Y6303750D03*
X3876000Y6303750D03*
%TD*%
D12*
%TO.C,C13*%
X3574000Y8388250D03*
X3574000Y8233250D03*
%TD*%
D16*
%TO.C,C18*%
X3285500Y7573750D03*
X3440500Y7573750D03*
%TD*%
D10*
%TO.C,R40*%
X3880000Y3572500D03*
X3880000Y3407500D03*
%TD*%
D19*
%TO.C,D1*%
X1985000Y9961500D03*
X1985000Y9751500D03*
%TD*%
D29*
%TO.C,U7*%
X1544880Y2482020D03*
X1544880Y2592020D03*
X1544880Y2702020D03*
X1544880Y2812020D03*
X1544880Y2922020D03*
X1544880Y3032020D03*
X1544880Y3142020D03*
X1544880Y3252020D03*
X1544880Y3362020D03*
D30*
X1467500Y3503860D03*
D31*
X497500Y3503860D03*
X497500Y1921380D03*
D32*
X1467500Y1998880D03*
%TD*%
D12*
%TO.C,C20*%
X6797687Y4866188D03*
X6797687Y4711188D03*
%TD*%
D16*
%TO.C,C17*%
X10761375Y630875D03*
X10916375Y630875D03*
%TD*%
D10*
%TO.C,R63*%
X10711875Y1872250D03*
X10711875Y1707250D03*
%TD*%
D33*
%TO.C,D3*%
X4777500Y10122000D03*
X4777500Y10332000D03*
%TD*%
D14*
%TO.C,R42*%
X3985250Y7415000D03*
X3820250Y7415000D03*
%TD*%
%TO.C,R35*%
X3401000Y5986250D03*
X3236000Y5986250D03*
%TD*%
D10*
%TO.C,R25*%
X3530000Y3572500D03*
X3530000Y3407500D03*
%TD*%
D14*
%TO.C,R61*%
X11032500Y2027875D03*
X10867500Y2027875D03*
%TD*%
D24*
%TO.C,C50*%
X2366000Y9929750D03*
X2366000Y9739750D03*
%TD*%
D34*
%TO.C,C44*%
X2905750Y9136000D03*
X2905750Y8596000D03*
%TD*%
D10*
%TO.C,R18*%
X8019000Y4011250D03*
X8019000Y3846250D03*
%TD*%
%TO.C,R4*%
X5064750Y10044000D03*
X5064750Y9879000D03*
%TD*%
D15*
%TO.C,R62*%
X10867500Y1710375D03*
X11032500Y1710375D03*
%TD*%
D35*
%TO.C,U2*%
X3255000Y6691250D03*
X3382000Y6691250D03*
X3509000Y6691250D03*
X3636000Y6691250D03*
X3763000Y6691250D03*
X3890000Y6691250D03*
X4017000Y6691250D03*
X4017000Y7186250D03*
X3890000Y7186250D03*
X3763000Y7186250D03*
X3636000Y7186250D03*
X3509000Y7186250D03*
X3382000Y7186250D03*
X3255000Y7186250D03*
%TD*%
D21*
%TO.C,C46*%
X969000Y6765250D03*
X429000Y6765250D03*
%TD*%
D14*
%TO.C,R68*%
X12334250Y2040250D03*
X12169250Y2040250D03*
%TD*%
D13*
%TO.C,FB3*%
X1794500Y8939250D03*
X1794500Y9104250D03*
%TD*%
D34*
%TO.C,C39*%
X2905750Y10152000D03*
X2905750Y9612000D03*
%TD*%
D14*
%TO.C,R46*%
X3445500Y7732500D03*
X3280500Y7732500D03*
%TD*%
M02*
