%TF.GenerationSoftware,KiCad,Pcbnew,10.0.1*%
%TF.CreationDate,2026-06-16T09:43:19-07:00*%
%TF.ProjectId,Seed3-DevKit-Eurorack-Rev3,53656564-332d-4446-9576-4b69742d4575,rev?*%
%TF.SameCoordinates,Original*%
%TF.FileFunction,AssemblyDrawing,Bot*%
%FSLAX45Y45*%
G04 Gerber Fmt 4.5, Leading zero omitted, Abs format (unit mm)*
G04 Created by KiCad (PCBNEW 10.0.1) date 2026-06-16 09:43:19*
%MOMM*%
%LPD*%
G01*
G04 APERTURE LIST*
%ADD10C,0.100000*%
G04 APERTURE END LIST*
D10*
X590000Y12360000D02*
X910000Y12360000D01*
X910000Y12740000D02*
G75*
G02*
X910000Y12360000I0J-190000D01*
G01*
X910000Y12740000D02*
X590000Y12740000D01*
X590000Y12740000D02*
G75*
G03*
X590000Y12360000I0J-190000D01*
G01*
X11120250Y8721255D02*
X11120250Y8556255D01*
X10955250Y8556255D01*
X10955250Y8721255D01*
X11120250Y8721255D01*
X11321923Y8721255D02*
X11370250Y8672928D01*
X11370250Y8604582D01*
X11321923Y8556255D01*
X11253577Y8556255D01*
X11205250Y8604582D01*
X11205250Y8672928D01*
X11253577Y8721255D01*
X11321923Y8721255D01*
X11571923Y8721255D02*
X11620250Y8672928D01*
X11620250Y8604582D01*
X11571923Y8556255D01*
X11503577Y8556255D01*
X11455250Y8604582D01*
X11455250Y8672928D01*
X11503577Y8721255D01*
X11571923Y8721255D01*
X10993550Y9494555D02*
X10993550Y9182955D01*
X10681950Y9182955D01*
X10681950Y9494555D01*
X10993550Y9494555D01*
X11893550Y9494555D02*
X11893550Y9182955D01*
X11581950Y9182955D01*
X11581950Y9494555D01*
X11893550Y9494555D01*
X11370250Y2250000D02*
G75*
G02*
X11205250Y2250000I-82500J0D01*
G01*
X11205250Y2250000D02*
G75*
G02*
X11370250Y2250000I82500J0D01*
G01*
X11370250Y2550000D02*
G75*
G02*
X11205250Y2550000I-82500J0D01*
G01*
X11205250Y2550000D02*
G75*
G02*
X11370250Y2550000I82500J0D01*
G01*
X11370250Y3400000D02*
G75*
G02*
X11205250Y3400000I-82500J0D01*
G01*
X11205250Y3400000D02*
G75*
G02*
X11370250Y3400000I82500J0D01*
G01*
X11120250Y10832500D02*
X11120250Y10667500D01*
X10955250Y10667500D01*
X10955250Y10832500D01*
X11120250Y10832500D01*
X11321923Y10832500D02*
X11370250Y10784173D01*
X11370250Y10715827D01*
X11321923Y10667500D01*
X11253577Y10667500D01*
X11205250Y10715827D01*
X11205250Y10784173D01*
X11253577Y10832500D01*
X11321923Y10832500D01*
X11571923Y10832500D02*
X11620250Y10784173D01*
X11620250Y10715827D01*
X11571923Y10667500D01*
X11503577Y10667500D01*
X11455250Y10715827D01*
X11455250Y10784173D01*
X11503577Y10832500D01*
X11571923Y10832500D01*
X10993550Y11605800D02*
X10993550Y11294200D01*
X10681950Y11294200D01*
X10681950Y11605800D01*
X10993550Y11605800D01*
X11893550Y11605800D02*
X11893550Y11294200D01*
X11581950Y11294200D01*
X11581950Y11605800D01*
X11893550Y11605800D01*
X7627750Y8721255D02*
X7627750Y8556255D01*
X7462750Y8556255D01*
X7462750Y8721255D01*
X7627750Y8721255D01*
X7829423Y8721255D02*
X7877750Y8672928D01*
X7877750Y8604582D01*
X7829423Y8556255D01*
X7761077Y8556255D01*
X7712750Y8604582D01*
X7712750Y8672928D01*
X7761077Y8721255D01*
X7829423Y8721255D01*
X8079423Y8721255D02*
X8127750Y8672928D01*
X8127750Y8604582D01*
X8079423Y8556255D01*
X8011077Y8556255D01*
X7962750Y8604582D01*
X7962750Y8672928D01*
X8011077Y8721255D01*
X8079423Y8721255D01*
X7501050Y9494555D02*
X7501050Y9182955D01*
X7189450Y9182955D01*
X7189450Y9494555D01*
X7501050Y9494555D01*
X8401050Y9494555D02*
X8401050Y9182955D01*
X8089450Y9182955D01*
X8089450Y9494555D01*
X8401050Y9494555D01*
X9358620Y1023880D02*
X9358620Y1166120D01*
X9216380Y1166120D02*
G75*
G02*
X9358620Y1166120I71120J0D01*
G01*
X9216380Y1166120D02*
X9216380Y1023880D01*
X9216380Y1023880D02*
G75*
G03*
X9358620Y1023880I71120J0D01*
G01*
X9612620Y1023880D02*
X9612620Y1166120D01*
X9470380Y1166120D02*
G75*
G02*
X9612620Y1166120I71120J0D01*
G01*
X9470380Y1166120D02*
X9470380Y1023880D01*
X9470380Y1023880D02*
G75*
G03*
X9612620Y1023880I71120J0D01*
G01*
X9866620Y1023880D02*
X9866620Y1166120D01*
X9724380Y1166120D02*
G75*
G02*
X9866620Y1166120I71120J0D01*
G01*
X9724380Y1166120D02*
X9724380Y1023880D01*
X9724380Y1023880D02*
G75*
G03*
X9866620Y1023880I71120J0D01*
G01*
X4071610Y1341120D02*
G75*
G02*
X3883650Y1341120I-93980J0D01*
G01*
X3883650Y1341120D02*
G75*
G02*
X4071610Y1341120I93980J0D01*
G01*
X4721850Y1341120D02*
G75*
G02*
X4533890Y1341120I-93980J0D01*
G01*
X4533890Y1341120D02*
G75*
G02*
X4721850Y1341120I93980J0D01*
G01*
X4071610Y889000D02*
G75*
G02*
X3883650Y889000I-93980J0D01*
G01*
X3883650Y889000D02*
G75*
G02*
X4071610Y889000I93980J0D01*
G01*
X4721850Y889000D02*
G75*
G02*
X4533890Y889000I-93980J0D01*
G01*
X4533890Y889000D02*
G75*
G02*
X4721850Y889000I93980J0D01*
G01*
X7627750Y10832500D02*
X7627750Y10667500D01*
X7462750Y10667500D01*
X7462750Y10832500D01*
X7627750Y10832500D01*
X7829423Y10832500D02*
X7877750Y10784173D01*
X7877750Y10715827D01*
X7829423Y10667500D01*
X7761077Y10667500D01*
X7712750Y10715827D01*
X7712750Y10784173D01*
X7761077Y10832500D01*
X7829423Y10832500D01*
X8079423Y10832500D02*
X8127750Y10784173D01*
X8127750Y10715827D01*
X8079423Y10667500D01*
X8011077Y10667500D01*
X7962750Y10715827D01*
X7962750Y10784173D01*
X8011077Y10832500D01*
X8079423Y10832500D01*
X7501050Y11605800D02*
X7501050Y11294200D01*
X7189450Y11294200D01*
X7189450Y11605800D01*
X7501050Y11605800D01*
X8401050Y11605800D02*
X8401050Y11294200D01*
X8089450Y11294200D01*
X8089450Y11605800D01*
X8401050Y11605800D01*
X6131500Y8595660D02*
G75*
G02*
X5966500Y8595660I-82500J0D01*
G01*
X5966500Y8595660D02*
G75*
G02*
X6131500Y8595660I82500J0D01*
G01*
X6131500Y8895660D02*
G75*
G02*
X5966500Y8895660I-82500J0D01*
G01*
X5966500Y8895660D02*
G75*
G02*
X6131500Y8895660I82500J0D01*
G01*
X6131500Y9745660D02*
G75*
G02*
X5966500Y9745660I-82500J0D01*
G01*
X5966500Y9745660D02*
G75*
G02*
X6131500Y9745660I82500J0D01*
G01*
X7877750Y4361245D02*
G75*
G02*
X7712750Y4361245I-82500J0D01*
G01*
X7712750Y4361245D02*
G75*
G02*
X7877750Y4361245I82500J0D01*
G01*
X7877750Y4661245D02*
G75*
G02*
X7712750Y4661245I-82500J0D01*
G01*
X7712750Y4661245D02*
G75*
G02*
X7877750Y4661245I82500J0D01*
G01*
X7877750Y5511245D02*
G75*
G02*
X7712750Y5511245I-82500J0D01*
G01*
X7712750Y5511245D02*
G75*
G02*
X7877750Y5511245I82500J0D01*
G01*
X6131500Y6472490D02*
G75*
G02*
X5966500Y6472490I-82500J0D01*
G01*
X5966500Y6472490D02*
G75*
G02*
X6131500Y6472490I82500J0D01*
G01*
X6131500Y6772490D02*
G75*
G02*
X5966500Y6772490I-82500J0D01*
G01*
X5966500Y6772490D02*
G75*
G02*
X6131500Y6772490I82500J0D01*
G01*
X6131500Y7622490D02*
G75*
G02*
X5966500Y7622490I-82500J0D01*
G01*
X5966500Y7622490D02*
G75*
G02*
X6131500Y7622490I82500J0D01*
G01*
X6139000Y3054425D02*
X6139000Y2874425D01*
X5959000Y2874425D01*
X5959000Y3054425D01*
X6139000Y3054425D01*
X6139000Y2710425D02*
G75*
G02*
X5959000Y2710425I-90000J0D01*
G01*
X5959000Y2710425D02*
G75*
G02*
X6139000Y2710425I90000J0D01*
G01*
X194500Y3760500D02*
X194500Y3930500D01*
X364500Y3930500D01*
X364500Y3760500D01*
X194500Y3760500D01*
X618500Y3845500D02*
G75*
G02*
X448500Y3845500I-85000J0D01*
G01*
X448500Y3845500D02*
G75*
G02*
X618500Y3845500I85000J0D01*
G01*
X872500Y3845500D02*
G75*
G02*
X702500Y3845500I-85000J0D01*
G01*
X702500Y3845500D02*
G75*
G02*
X872500Y3845500I85000J0D01*
G01*
X1126500Y3845500D02*
G75*
G02*
X956500Y3845500I-85000J0D01*
G01*
X956500Y3845500D02*
G75*
G02*
X1126500Y3845500I85000J0D01*
G01*
X1380500Y3845500D02*
G75*
G02*
X1210500Y3845500I-85000J0D01*
G01*
X1210500Y3845500D02*
G75*
G02*
X1380500Y3845500I85000J0D01*
G01*
X1634500Y3845500D02*
G75*
G02*
X1464500Y3845500I-85000J0D01*
G01*
X1464500Y3845500D02*
G75*
G02*
X1634500Y3845500I85000J0D01*
G01*
X1888500Y3845500D02*
G75*
G02*
X1718500Y3845500I-85000J0D01*
G01*
X1718500Y3845500D02*
G75*
G02*
X1888500Y3845500I85000J0D01*
G01*
X2142500Y3845500D02*
G75*
G02*
X1972500Y3845500I-85000J0D01*
G01*
X1972500Y3845500D02*
G75*
G02*
X2142500Y3845500I85000J0D01*
G01*
X2396500Y3845500D02*
G75*
G02*
X2226500Y3845500I-85000J0D01*
G01*
X2226500Y3845500D02*
G75*
G02*
X2396500Y3845500I85000J0D01*
G01*
X2650500Y3845500D02*
G75*
G02*
X2480500Y3845500I-85000J0D01*
G01*
X2480500Y3845500D02*
G75*
G02*
X2650500Y3845500I85000J0D01*
G01*
X2904500Y3845500D02*
G75*
G02*
X2734500Y3845500I-85000J0D01*
G01*
X2734500Y3845500D02*
G75*
G02*
X2904500Y3845500I85000J0D01*
G01*
X3158500Y3845500D02*
G75*
G02*
X2988500Y3845500I-85000J0D01*
G01*
X2988500Y3845500D02*
G75*
G02*
X3158500Y3845500I85000J0D01*
G01*
X3412500Y3845500D02*
G75*
G02*
X3242500Y3845500I-85000J0D01*
G01*
X3242500Y3845500D02*
G75*
G02*
X3412500Y3845500I85000J0D01*
G01*
X3666500Y3845500D02*
G75*
G02*
X3496500Y3845500I-85000J0D01*
G01*
X3496500Y3845500D02*
G75*
G02*
X3666500Y3845500I85000J0D01*
G01*
X3920500Y3845500D02*
G75*
G02*
X3750500Y3845500I-85000J0D01*
G01*
X3750500Y3845500D02*
G75*
G02*
X3920500Y3845500I85000J0D01*
G01*
X4174500Y3845500D02*
G75*
G02*
X4004500Y3845500I-85000J0D01*
G01*
X4004500Y3845500D02*
G75*
G02*
X4174500Y3845500I85000J0D01*
G01*
X4428500Y3845500D02*
G75*
G02*
X4258500Y3845500I-85000J0D01*
G01*
X4258500Y3845500D02*
G75*
G02*
X4428500Y3845500I85000J0D01*
G01*
X4682500Y3845500D02*
G75*
G02*
X4512500Y3845500I-85000J0D01*
G01*
X4512500Y3845500D02*
G75*
G02*
X4682500Y3845500I85000J0D01*
G01*
X4936500Y3845500D02*
G75*
G02*
X4766500Y3845500I-85000J0D01*
G01*
X4766500Y3845500D02*
G75*
G02*
X4936500Y3845500I85000J0D01*
G01*
X5190500Y3845500D02*
G75*
G02*
X5020500Y3845500I-85000J0D01*
G01*
X5020500Y3845500D02*
G75*
G02*
X5190500Y3845500I85000J0D01*
G01*
X5190500Y5369500D02*
G75*
G02*
X5020500Y5369500I-85000J0D01*
G01*
X5020500Y5369500D02*
G75*
G02*
X5190500Y5369500I85000J0D01*
G01*
X4936500Y5369500D02*
G75*
G02*
X4766500Y5369500I-85000J0D01*
G01*
X4766500Y5369500D02*
G75*
G02*
X4936500Y5369500I85000J0D01*
G01*
X4682500Y5369500D02*
G75*
G02*
X4512500Y5369500I-85000J0D01*
G01*
X4512500Y5369500D02*
G75*
G02*
X4682500Y5369500I85000J0D01*
G01*
X4428500Y5369500D02*
G75*
G02*
X4258500Y5369500I-85000J0D01*
G01*
X4258500Y5369500D02*
G75*
G02*
X4428500Y5369500I85000J0D01*
G01*
X4174500Y5369500D02*
G75*
G02*
X4004500Y5369500I-85000J0D01*
G01*
X4004500Y5369500D02*
G75*
G02*
X4174500Y5369500I85000J0D01*
G01*
X3920500Y5369500D02*
G75*
G02*
X3750500Y5369500I-85000J0D01*
G01*
X3750500Y5369500D02*
G75*
G02*
X3920500Y5369500I85000J0D01*
G01*
X3666500Y5369500D02*
G75*
G02*
X3496500Y5369500I-85000J0D01*
G01*
X3496500Y5369500D02*
G75*
G02*
X3666500Y5369500I85000J0D01*
G01*
X3412500Y5369500D02*
G75*
G02*
X3242500Y5369500I-85000J0D01*
G01*
X3242500Y5369500D02*
G75*
G02*
X3412500Y5369500I85000J0D01*
G01*
X3158500Y5369500D02*
G75*
G02*
X2988500Y5369500I-85000J0D01*
G01*
X2988500Y5369500D02*
G75*
G02*
X3158500Y5369500I85000J0D01*
G01*
X2904500Y5369500D02*
G75*
G02*
X2734500Y5369500I-85000J0D01*
G01*
X2734500Y5369500D02*
G75*
G02*
X2904500Y5369500I85000J0D01*
G01*
X2650500Y5369500D02*
G75*
G02*
X2480500Y5369500I-85000J0D01*
G01*
X2480500Y5369500D02*
G75*
G02*
X2650500Y5369500I85000J0D01*
G01*
X2396500Y5369500D02*
G75*
G02*
X2226500Y5369500I-85000J0D01*
G01*
X2226500Y5369500D02*
G75*
G02*
X2396500Y5369500I85000J0D01*
G01*
X2142500Y5369500D02*
G75*
G02*
X1972500Y5369500I-85000J0D01*
G01*
X1972500Y5369500D02*
G75*
G02*
X2142500Y5369500I85000J0D01*
G01*
X1888500Y5369500D02*
G75*
G02*
X1718500Y5369500I-85000J0D01*
G01*
X1718500Y5369500D02*
G75*
G02*
X1888500Y5369500I85000J0D01*
G01*
X1634500Y5369500D02*
G75*
G02*
X1464500Y5369500I-85000J0D01*
G01*
X1464500Y5369500D02*
G75*
G02*
X1634500Y5369500I85000J0D01*
G01*
X1380500Y5369500D02*
G75*
G02*
X1210500Y5369500I-85000J0D01*
G01*
X1210500Y5369500D02*
G75*
G02*
X1380500Y5369500I85000J0D01*
G01*
X1126500Y5369500D02*
G75*
G02*
X956500Y5369500I-85000J0D01*
G01*
X956500Y5369500D02*
G75*
G02*
X1126500Y5369500I85000J0D01*
G01*
X872500Y5369500D02*
G75*
G02*
X702500Y5369500I-85000J0D01*
G01*
X702500Y5369500D02*
G75*
G02*
X872500Y5369500I85000J0D01*
G01*
X618500Y5369500D02*
G75*
G02*
X448500Y5369500I-85000J0D01*
G01*
X448500Y5369500D02*
G75*
G02*
X618500Y5369500I85000J0D01*
G01*
X364500Y5369500D02*
G75*
G02*
X194500Y5369500I-85000J0D01*
G01*
X194500Y5369500D02*
G75*
G02*
X364500Y5369500I85000J0D01*
G01*
X9624000Y4361245D02*
G75*
G02*
X9459000Y4361245I-82500J0D01*
G01*
X9459000Y4361245D02*
G75*
G02*
X9624000Y4361245I82500J0D01*
G01*
X9624000Y4661245D02*
G75*
G02*
X9459000Y4661245I-82500J0D01*
G01*
X9459000Y4661245D02*
G75*
G02*
X9624000Y4661245I82500J0D01*
G01*
X9624000Y5511245D02*
G75*
G02*
X9459000Y5511245I-82500J0D01*
G01*
X9459000Y5511245D02*
G75*
G02*
X9624000Y5511245I82500J0D01*
G01*
X12866500Y10832500D02*
X12866500Y10667500D01*
X12701500Y10667500D01*
X12701500Y10832500D01*
X12866500Y10832500D01*
X13068173Y10832500D02*
X13116500Y10784173D01*
X13116500Y10715827D01*
X13068173Y10667500D01*
X12999827Y10667500D01*
X12951500Y10715827D01*
X12951500Y10784173D01*
X12999827Y10832500D01*
X13068173Y10832500D01*
X13318173Y10832500D02*
X13366500Y10784173D01*
X13366500Y10715827D01*
X13318173Y10667500D01*
X13249827Y10667500D01*
X13201500Y10715827D01*
X13201500Y10784173D01*
X13249827Y10832500D01*
X13318173Y10832500D01*
X12739800Y11605800D02*
X12739800Y11294200D01*
X12428200Y11294200D01*
X12428200Y11605800D01*
X12739800Y11605800D01*
X13639800Y11605800D02*
X13639800Y11294200D01*
X13328200Y11294200D01*
X13328200Y11605800D01*
X13639800Y11605800D01*
X11370250Y4361245D02*
G75*
G02*
X11205250Y4361245I-82500J0D01*
G01*
X11205250Y4361245D02*
G75*
G02*
X11370250Y4361245I82500J0D01*
G01*
X11370250Y4661245D02*
G75*
G02*
X11205250Y4661245I-82500J0D01*
G01*
X11205250Y4661245D02*
G75*
G02*
X11370250Y4661245I82500J0D01*
G01*
X11370250Y5511245D02*
G75*
G02*
X11205250Y5511245I-82500J0D01*
G01*
X11205250Y5511245D02*
G75*
G02*
X11370250Y5511245I82500J0D01*
G01*
X7877750Y2250000D02*
G75*
G02*
X7712750Y2250000I-82500J0D01*
G01*
X7712750Y2250000D02*
G75*
G02*
X7877750Y2250000I82500J0D01*
G01*
X7877750Y2550000D02*
G75*
G02*
X7712750Y2550000I-82500J0D01*
G01*
X7712750Y2550000D02*
G75*
G02*
X7877750Y2550000I82500J0D01*
G01*
X7877750Y3400000D02*
G75*
G02*
X7712750Y3400000I-82500J0D01*
G01*
X7712750Y3400000D02*
G75*
G02*
X7877750Y3400000I82500J0D01*
G01*
X7877750Y6472490D02*
G75*
G02*
X7712750Y6472490I-82500J0D01*
G01*
X7712750Y6472490D02*
G75*
G02*
X7877750Y6472490I82500J0D01*
G01*
X7877750Y6772490D02*
G75*
G02*
X7712750Y6772490I-82500J0D01*
G01*
X7712750Y6772490D02*
G75*
G02*
X7877750Y6772490I82500J0D01*
G01*
X7877750Y7622490D02*
G75*
G02*
X7712750Y7622490I-82500J0D01*
G01*
X7712750Y7622490D02*
G75*
G02*
X7877750Y7622490I82500J0D01*
G01*
X5817860Y1345000D02*
G75*
G02*
X5629900Y1345000I-93980J0D01*
G01*
X5629900Y1345000D02*
G75*
G02*
X5817860Y1345000I93980J0D01*
G01*
X6468100Y1345000D02*
G75*
G02*
X6280140Y1345000I-93980J0D01*
G01*
X6280140Y1345000D02*
G75*
G02*
X6468100Y1345000I93980J0D01*
G01*
X5817860Y892880D02*
G75*
G02*
X5629900Y892880I-93980J0D01*
G01*
X5629900Y892880D02*
G75*
G02*
X5817860Y892880I93980J0D01*
G01*
X6468100Y892880D02*
G75*
G02*
X6280140Y892880I-93980J0D01*
G01*
X6280140Y892880D02*
G75*
G02*
X6468100Y892880I93980J0D01*
G01*
X632500Y8155000D02*
G75*
G02*
X567500Y8155000I-32500J0D01*
G01*
X567500Y8155000D02*
G75*
G02*
X632500Y8155000I32500J0D01*
G01*
X632500Y7577000D02*
G75*
G02*
X567500Y7577000I-32500J0D01*
G01*
X567500Y7577000D02*
G75*
G02*
X632500Y7577000I32500J0D01*
G01*
X590000Y110000D02*
X910000Y110000D01*
X910000Y490000D02*
G75*
G02*
X910000Y110000I0J-190000D01*
G01*
X910000Y490000D02*
X590000Y490000D01*
X590000Y490000D02*
G75*
G03*
X590000Y110000I0J-190000D01*
G01*
X9374000Y8721255D02*
X9374000Y8556255D01*
X9209000Y8556255D01*
X9209000Y8721255D01*
X9374000Y8721255D01*
X9575673Y8721255D02*
X9624000Y8672928D01*
X9624000Y8604582D01*
X9575673Y8556255D01*
X9507327Y8556255D01*
X9459000Y8604582D01*
X9459000Y8672928D01*
X9507327Y8721255D01*
X9575673Y8721255D01*
X9825673Y8721255D02*
X9874000Y8672928D01*
X9874000Y8604582D01*
X9825673Y8556255D01*
X9757327Y8556255D01*
X9709000Y8604582D01*
X9709000Y8672928D01*
X9757327Y8721255D01*
X9825673Y8721255D01*
X9247300Y9494555D02*
X9247300Y9182955D01*
X8935700Y9182955D01*
X8935700Y9494555D01*
X9247300Y9494555D01*
X10147300Y9494555D02*
X10147300Y9182955D01*
X9835700Y9182955D01*
X9835700Y9494555D01*
X10147300Y9494555D01*
X6131500Y10706905D02*
G75*
G02*
X5966500Y10706905I-82500J0D01*
G01*
X5966500Y10706905D02*
G75*
G02*
X6131500Y10706905I82500J0D01*
G01*
X6131500Y11006905D02*
G75*
G02*
X5966500Y11006905I-82500J0D01*
G01*
X5966500Y11006905D02*
G75*
G02*
X6131500Y11006905I82500J0D01*
G01*
X6131500Y11856905D02*
G75*
G02*
X5966500Y11856905I-82500J0D01*
G01*
X5966500Y11856905D02*
G75*
G02*
X6131500Y11856905I82500J0D01*
G01*
X9624000Y6472490D02*
G75*
G02*
X9459000Y6472490I-82500J0D01*
G01*
X9459000Y6472490D02*
G75*
G02*
X9624000Y6472490I82500J0D01*
G01*
X9624000Y6772490D02*
G75*
G02*
X9459000Y6772490I-82500J0D01*
G01*
X9459000Y6772490D02*
G75*
G02*
X9624000Y6772490I82500J0D01*
G01*
X9624000Y7622490D02*
G75*
G02*
X9459000Y7622490I-82500J0D01*
G01*
X9459000Y7622490D02*
G75*
G02*
X9624000Y7622490I82500J0D01*
G01*
X7612370Y1023880D02*
X7612370Y1166120D01*
X7470130Y1166120D02*
G75*
G02*
X7612370Y1166120I71120J0D01*
G01*
X7470130Y1166120D02*
X7470130Y1023880D01*
X7470130Y1023880D02*
G75*
G03*
X7612370Y1023880I71120J0D01*
G01*
X7866370Y1023880D02*
X7866370Y1166120D01*
X7724130Y1166120D02*
G75*
G02*
X7866370Y1166120I71120J0D01*
G01*
X7724130Y1166120D02*
X7724130Y1023880D01*
X7724130Y1023880D02*
G75*
G03*
X7866370Y1023880I71120J0D01*
G01*
X8120370Y1023880D02*
X8120370Y1166120D01*
X7978130Y1166120D02*
G75*
G02*
X8120370Y1166120I71120J0D01*
G01*
X7978130Y1166120D02*
X7978130Y1023880D01*
X7978130Y1023880D02*
G75*
G03*
X8120370Y1023880I71120J0D01*
G01*
X4392750Y3250925D02*
X4392750Y3070925D01*
X4212750Y3070925D01*
X4212750Y3250925D01*
X4392750Y3250925D01*
X4392750Y2945025D02*
G75*
G02*
X4212750Y2945025I-90000J0D01*
G01*
X4212750Y2945025D02*
G75*
G02*
X4392750Y2945025I90000J0D01*
G01*
X4392750Y2729125D02*
G75*
G02*
X4212750Y2729125I-90000J0D01*
G01*
X4212750Y2729125D02*
G75*
G02*
X4392750Y2729125I90000J0D01*
G01*
X4392750Y2513225D02*
G75*
G02*
X4212750Y2513225I-90000J0D01*
G01*
X4212750Y2513225D02*
G75*
G02*
X4392750Y2513225I90000J0D01*
G01*
X13280000Y12360000D02*
X13600000Y12360000D01*
X13600000Y12740000D02*
G75*
G02*
X13600000Y12360000I0J-190000D01*
G01*
X13600000Y12740000D02*
X13280000Y12740000D01*
X13280000Y12740000D02*
G75*
G03*
X13280000Y12360000I0J-190000D01*
G01*
X11370250Y6472490D02*
G75*
G02*
X11205250Y6472490I-82500J0D01*
G01*
X11205250Y6472490D02*
G75*
G02*
X11370250Y6472490I82500J0D01*
G01*
X11370250Y6772490D02*
G75*
G02*
X11205250Y6772490I-82500J0D01*
G01*
X11205250Y6772490D02*
G75*
G02*
X11370250Y6772490I82500J0D01*
G01*
X11370250Y7622490D02*
G75*
G02*
X11205250Y7622490I-82500J0D01*
G01*
X11205250Y7622490D02*
G75*
G02*
X11370250Y7622490I82500J0D01*
G01*
X12866500Y8721255D02*
X12866500Y8556255D01*
X12701500Y8556255D01*
X12701500Y8721255D01*
X12866500Y8721255D01*
X13068173Y8721255D02*
X13116500Y8672928D01*
X13116500Y8604582D01*
X13068173Y8556255D01*
X12999827Y8556255D01*
X12951500Y8604582D01*
X12951500Y8672928D01*
X12999827Y8721255D01*
X13068173Y8721255D01*
X13318173Y8721255D02*
X13366500Y8672928D01*
X13366500Y8604582D01*
X13318173Y8556255D01*
X13249827Y8556255D01*
X13201500Y8604582D01*
X13201500Y8672928D01*
X13249827Y8721255D01*
X13318173Y8721255D01*
X12739800Y9494555D02*
X12739800Y9182955D01*
X12428200Y9182955D01*
X12428200Y9494555D01*
X12739800Y9494555D01*
X13639800Y9494555D02*
X13639800Y9182955D01*
X13328200Y9182955D01*
X13328200Y9494555D01*
X13639800Y9494555D01*
X4834000Y9977500D02*
X4843567Y9975597D01*
X4851678Y9970178D01*
X4857097Y9962067D01*
X4859000Y9952500D01*
X4859000Y9842500D01*
X4857097Y9832933D01*
X4851678Y9824822D01*
X4843567Y9819403D01*
X4834000Y9817500D01*
X4724000Y9817500D01*
X4714433Y9819403D01*
X4706322Y9824822D01*
X4700903Y9832933D01*
X4699000Y9842500D01*
X4699000Y9952500D01*
X4700903Y9962067D01*
X4706322Y9970178D01*
X4714433Y9975597D01*
X4724000Y9977500D01*
X4834000Y9977500D01*
X4605000Y9897500D02*
G75*
G02*
X4445000Y9897500I-80000J0D01*
G01*
X4445000Y9897500D02*
G75*
G02*
X4605000Y9897500I80000J0D01*
G01*
X4351000Y9897500D02*
G75*
G02*
X4191000Y9897500I-80000J0D01*
G01*
X4191000Y9897500D02*
G75*
G02*
X4351000Y9897500I80000J0D01*
G01*
X4351000Y9135500D02*
G75*
G02*
X4191000Y9135500I-80000J0D01*
G01*
X4191000Y9135500D02*
G75*
G02*
X4351000Y9135500I80000J0D01*
G01*
X4605000Y9135500D02*
G75*
G02*
X4445000Y9135500I-80000J0D01*
G01*
X4445000Y9135500D02*
G75*
G02*
X4605000Y9135500I80000J0D01*
G01*
X4859000Y9135500D02*
G75*
G02*
X4699000Y9135500I-80000J0D01*
G01*
X4699000Y9135500D02*
G75*
G02*
X4859000Y9135500I80000J0D01*
G01*
X524440Y3205380D02*
G75*
G02*
X424440Y3205380I-50000J0D01*
G01*
X424440Y3205380D02*
G75*
G02*
X524440Y3205380I50000J0D01*
G01*
X524440Y2407820D02*
G75*
G02*
X424440Y2407820I-50000J0D01*
G01*
X424440Y2407820D02*
G75*
G02*
X524440Y2407820I50000J0D01*
G01*
X1082472Y9169020D02*
X1027420Y9224072D01*
X1027420Y9301928D01*
X1082472Y9356980D01*
X1160328Y9356980D01*
X1215380Y9301928D01*
X1215380Y9224072D01*
X1160328Y9169020D01*
X1082472Y9169020D01*
X1336472Y9169020D02*
X1281420Y9224072D01*
X1281420Y9301928D01*
X1336472Y9356980D01*
X1414328Y9356980D01*
X1469380Y9301928D01*
X1469380Y9224072D01*
X1414328Y9169020D01*
X1336472Y9169020D01*
X1057072Y9423020D02*
X1002020Y9478072D01*
X1002020Y9555928D01*
X1057072Y9610980D01*
X1134928Y9610980D01*
X1189980Y9555928D01*
X1189980Y9478072D01*
X1134928Y9423020D01*
X1057072Y9423020D01*
X1311072Y9423020D02*
X1256020Y9478072D01*
X1256020Y9555928D01*
X1311072Y9610980D01*
X1388928Y9610980D01*
X1443980Y9555928D01*
X1443980Y9478072D01*
X1388928Y9423020D01*
X1311072Y9423020D01*
X1082472Y9677020D02*
X1027420Y9732072D01*
X1027420Y9809928D01*
X1082472Y9864980D01*
X1160328Y9864980D01*
X1215380Y9809928D01*
X1215380Y9732072D01*
X1160328Y9677020D01*
X1082472Y9677020D01*
X1336472Y9677020D02*
X1281420Y9732072D01*
X1281420Y9809928D01*
X1336472Y9864980D01*
X1414328Y9864980D01*
X1469380Y9809928D01*
X1469380Y9732072D01*
X1414328Y9677020D01*
X1336472Y9677020D01*
X1057072Y8915020D02*
X1002020Y8970072D01*
X1002020Y9047928D01*
X1057072Y9102980D01*
X1134928Y9102980D01*
X1189980Y9047928D01*
X1189980Y8970072D01*
X1134928Y8915020D01*
X1057072Y8915020D01*
X1311072Y8915020D02*
X1256020Y8970072D01*
X1256020Y9047928D01*
X1311072Y9102980D01*
X1388928Y9102980D01*
X1443980Y9047928D01*
X1443980Y8970072D01*
X1388928Y8915020D01*
X1311072Y8915020D01*
X1057072Y9931020D02*
X1002020Y9986072D01*
X1002020Y10063928D01*
X1057072Y10118980D01*
X1134928Y10118980D01*
X1189980Y10063928D01*
X1189980Y9986072D01*
X1134928Y9931020D01*
X1057072Y9931020D01*
X1311072Y9931020D02*
X1256020Y9986072D01*
X1256020Y10063928D01*
X1311072Y10118980D01*
X1388928Y10118980D01*
X1443980Y10063928D01*
X1443980Y9986072D01*
X1388928Y9931020D01*
X1311072Y9931020D01*
X9624000Y2250000D02*
G75*
G02*
X9459000Y2250000I-82500J0D01*
G01*
X9459000Y2250000D02*
G75*
G02*
X9624000Y2250000I82500J0D01*
G01*
X9624000Y2550000D02*
G75*
G02*
X9459000Y2550000I-82500J0D01*
G01*
X9459000Y2550000D02*
G75*
G02*
X9624000Y2550000I82500J0D01*
G01*
X9624000Y3400000D02*
G75*
G02*
X9459000Y3400000I-82500J0D01*
G01*
X9459000Y3400000D02*
G75*
G02*
X9624000Y3400000I82500J0D01*
G01*
X13116500Y6472490D02*
G75*
G02*
X12951500Y6472490I-82500J0D01*
G01*
X12951500Y6472490D02*
G75*
G02*
X13116500Y6472490I82500J0D01*
G01*
X13116500Y6772490D02*
G75*
G02*
X12951500Y6772490I-82500J0D01*
G01*
X12951500Y6772490D02*
G75*
G02*
X13116500Y6772490I82500J0D01*
G01*
X13116500Y7622490D02*
G75*
G02*
X12951500Y7622490I-82500J0D01*
G01*
X12951500Y7622490D02*
G75*
G02*
X13116500Y7622490I82500J0D01*
G01*
X13116500Y4361245D02*
G75*
G02*
X12951500Y4361245I-82500J0D01*
G01*
X12951500Y4361245D02*
G75*
G02*
X13116500Y4361245I82500J0D01*
G01*
X13116500Y4661245D02*
G75*
G02*
X12951500Y4661245I-82500J0D01*
G01*
X12951500Y4661245D02*
G75*
G02*
X13116500Y4661245I82500J0D01*
G01*
X13116500Y5511245D02*
G75*
G02*
X12951500Y5511245I-82500J0D01*
G01*
X12951500Y5511245D02*
G75*
G02*
X13116500Y5511245I82500J0D01*
G01*
X9374000Y10832500D02*
X9374000Y10667500D01*
X9209000Y10667500D01*
X9209000Y10832500D01*
X9374000Y10832500D01*
X9575673Y10832500D02*
X9624000Y10784173D01*
X9624000Y10715827D01*
X9575673Y10667500D01*
X9507327Y10667500D01*
X9459000Y10715827D01*
X9459000Y10784173D01*
X9507327Y10832500D01*
X9575673Y10832500D01*
X9825673Y10832500D02*
X9874000Y10784173D01*
X9874000Y10715827D01*
X9825673Y10667500D01*
X9757327Y10667500D01*
X9709000Y10715827D01*
X9709000Y10784173D01*
X9757327Y10832500D01*
X9825673Y10832500D01*
X9247300Y11605800D02*
X9247300Y11294200D01*
X8935700Y11294200D01*
X8935700Y11605800D01*
X9247300Y11605800D01*
X10147300Y11605800D02*
X10147300Y11294200D01*
X9835700Y11294200D01*
X9835700Y11605800D01*
X10147300Y11605800D01*
X13280000Y110000D02*
X13600000Y110000D01*
X13600000Y490000D02*
G75*
G02*
X13600000Y110000I0J-190000D01*
G01*
X13600000Y490000D02*
X13280000Y490000D01*
X13280000Y490000D02*
G75*
G03*
X13280000Y110000I0J-190000D01*
G01*
X13116500Y2250000D02*
G75*
G02*
X12951500Y2250000I-82500J0D01*
G01*
X12951500Y2250000D02*
G75*
G02*
X13116500Y2250000I82500J0D01*
G01*
X13116500Y2550000D02*
G75*
G02*
X12951500Y2550000I-82500J0D01*
G01*
X12951500Y2550000D02*
G75*
G02*
X13116500Y2550000I82500J0D01*
G01*
X13116500Y3400000D02*
G75*
G02*
X12951500Y3400000I-82500J0D01*
G01*
X12951500Y3400000D02*
G75*
G02*
X13116500Y3400000I82500J0D01*
G01*
M02*
